<svg width="103" height="103" viewBox="0 0 103 103" fill="none" xmlns="http://www.w3.org/2000/svg">
<path d="M53.1607 90.204C54.0089 90.0603 54.8842 89.6364 55.6709 89.2952L58.4153 88.0729C66.3498 84.3851 73.8187 79.5732 79.6241 72.9514C81.0735 71.2982 82.3539 69.5493 83.5954 67.7381L84.2802 66.6786C84.4054 66.471 84.552 66.0564 84.768 65.9471L83.2653 69.3471C83.0439 70.1424 82.5293 70.9349 82.1096 71.6401C80.4607 74.411 78.555 76.9497 76.3795 79.3271C75.8904 79.8615 75.3614 80.4693 74.7957 80.9214L74.7627 80.9471L74.8109 81.0716L74.7708 81.1442C74.6643 81.137 74.6138 81.14 74.5182 81.1888L74.5033 81.3427L74.6373 81.2325L74.7852 81.2329L74.8725 81.195L74.8767 81.3027C74.8926 81.2852 74.9366 81.2341 74.9563 81.2245L75.1234 81.1695L75.1853 81.1453L75.2659 81.1983C75.3671 81.1228 75.4324 81.0693 75.5621 81.0535C75.6798 81.0393 75.6271 81.062 75.7329 81.0075L75.8013 80.9687L75.9801 80.9085C76.1038 80.8523 76.1463 80.7751 76.1905 80.655L76.3484 80.6171L76.5275 80.7929C76.6399 80.6867 76.7485 80.562 76.8917 80.499L76.9226 80.6951L77.7907 79.9532C77.9526 79.7938 78.1743 79.57 78.3565 79.4382C78.5577 79.2926 78.7464 79.0976 78.913 78.9131L78.9603 78.8597C79.1643 78.7921 80.1331 77.7775 80.3085 77.5525C80.4505 77.3706 80.7161 77.1863 80.8211 76.9988L80.8465 76.9231L81.2557 76.5013L81.3866 76.345L82.2039 75.4148C82.3228 75.2438 82.4869 75.057 82.6317 74.8988L82.7571 74.761C82.8018 74.7036 82.8344 74.6514 82.8831 74.597L84.4296 72.5727L84.6687 72.2207C84.7258 72.1454 84.7841 72.0773 84.8317 71.9947L84.8699 71.9189L85.0208 71.7178L85.222 71.416L85.4352 71.1017C85.6177 70.7424 85.8647 70.3458 86.0893 70.0078C86.2219 69.8081 86.3123 69.5874 86.4534 69.3892L86.4788 69.354L86.4793 69.2785L87.0325 68.2978C87.0865 68.2065 87.1213 68.1071 87.1829 68.0217C87.229 67.9579 87.256 67.9331 87.2797 67.8546L87.2963 67.7949L87.3338 67.7446L87.5119 67.3532C87.5872 67.1649 87.7012 66.9953 87.766 66.8029L87.7869 66.7388C87.8925 66.5497 87.797 66.7949 87.8759 66.5779L87.9036 66.4971L87.9909 66.4936C87.8864 66.8587 87.6913 67.2102 87.5261 67.5521L86.2836 69.8827C85.0671 72.0091 83.6073 73.9515 82.0051 75.7995C81.2232 76.7017 80.4375 77.5943 79.5855 78.4319C76.413 81.5511 72.766 84.1413 68.8825 86.2947L65.4215 88.0906C64.4635 88.6228 63.3754 89.0033 62.3633 89.4246C58.2565 91.1341 54.0104 92.6102 49.6756 93.6278L53.1607 90.204Z" fill="#7B2CBF"/>
<path d="M18.1149 37.055L44.708 54.7868L44.7017 60.4974C44.0907 60.1091 43.5155 59.6504 42.9213 59.2354L39.4921 56.8817L25.4088 47.312L16.9577 41.5941L14.8189 40.1632C14.4044 39.8863 13.9463 39.6166 13.5783 39.2814C15.1332 38.7077 16.6549 37.8361 18.1149 37.055Z" fill="#9D4EDD"/>
<path d="M69.6604 21.0891C70.5243 21.4237 71.3595 21.8799 72.1767 22.3162C75.245 23.9541 78.0132 25.9205 80.5128 28.3471L81.3298 29.1611C81.414 29.2461 81.5911 29.3829 81.6405 29.4879C82.5678 30.2888 83.3533 31.3958 84.0876 32.3751C87.7804 37.2992 90.4074 43.2935 90.8616 49.4797C91.2267 54.4541 90.6509 59.326 88.9592 64.0294C88.6666 64.8427 88.3869 65.7253 87.9909 66.4936L87.9036 66.4972L87.8759 66.5779C87.7969 66.7949 87.8925 66.5497 87.7869 66.7388L87.766 66.8029C87.7012 66.9954 87.5872 67.1649 87.5119 67.3532L87.3337 67.7446L87.2963 67.7949L87.2796 67.8546C87.256 67.9331 87.2289 67.9579 87.1829 68.0217C87.1213 68.1071 87.0865 68.2065 87.0325 68.2978L86.4793 69.2786L86.4788 69.354L86.4534 69.3892C86.3123 69.5875 86.2219 69.8081 86.0893 70.0078C85.8647 70.3458 85.6176 70.7424 85.4352 71.1017L85.2219 71.416L85.0208 71.7178L84.8699 71.9189L84.8317 71.9947C84.7841 72.0773 84.7257 72.1455 84.6687 72.2207L84.4296 72.5727L82.8831 74.597C82.8343 74.6515 82.8017 74.7036 82.7571 74.761L82.6316 74.8988C82.4869 75.057 82.3228 75.2438 82.2039 75.4148L81.3866 76.345L81.2556 76.5013L80.8465 76.9231L80.8211 76.9988C80.7161 77.1863 80.4504 77.3706 80.3085 77.5525C80.1331 77.7775 79.1643 78.7921 78.9603 78.8597L78.913 78.9131C78.7464 79.0976 78.5577 79.2926 78.3564 79.4382C78.1743 79.57 77.9526 79.7938 77.7907 79.9532L76.9226 80.6951L76.8917 80.499C76.7485 80.562 76.6398 80.6867 76.5275 80.7929L76.3483 80.6171L76.1904 80.655C76.1463 80.7751 76.1037 80.8523 75.9801 80.9085L75.8013 80.9688L75.7329 81.0075C75.627 81.062 75.6798 81.0393 75.5621 81.0535C75.4324 81.0693 75.367 81.1228 75.2658 81.1983L75.1853 81.1453L75.1234 81.1695L74.9562 81.2245C74.9365 81.2341 74.8926 81.2852 74.8767 81.3027L74.8724 81.195L74.7851 81.2329L74.6373 81.2325L74.5033 81.3427L74.5182 81.1888C74.6137 81.14 74.6642 81.137 74.7708 81.1442L74.8109 81.0717L74.7627 80.9471L74.7957 80.9214C75.3614 80.4693 75.8904 79.8615 76.3794 79.3271C78.555 76.9497 80.4607 74.4111 82.1096 71.6401C82.5293 70.9349 83.0439 70.1424 83.2652 69.3472L84.768 65.9471C84.9267 65.8162 85.0832 65.2153 85.1528 65.0113C85.794 63.1318 86.3941 61.1103 86.6999 59.1455L86.9591 57.1223C86.9943 56.699 86.9838 56.2704 87.049 55.8502L87.0577 55.7978C87.0787 56.0576 87.1408 56.3622 87.0956 56.6176C87.0368 56.9487 87.093 57.3488 87.0109 57.6706C86.949 57.9132 86.9214 58.2758 86.9188 58.5284L86.9319 58.3398C86.9587 58.2169 86.9875 58.1676 86.9838 58.033L86.9822 57.9878C87.0578 57.8739 87.0323 57.7696 87.0325 57.6357C87.1127 57.5151 87.0826 57.329 87.0828 57.1831C87.194 57.0157 87.1013 56.7153 87.1834 56.5041C87.2811 56.2528 87.1245 56.011 87.2095 55.7795C87.3075 55.5128 87.2612 55.2959 87.289 55.0205C87.2981 54.9299 87.3349 54.834 87.3343 54.7439C87.3329 54.5259 87.2652 54.3416 87.3058 54.1152C87.3693 53.761 87.3135 53.4366 87.3032 53.0839C87.2865 52.5163 87.292 51.8835 87.1895 51.324L86.8867 49.2871L86.8015 48.814L86.6852 48.2058C86.6594 48.1216 86.6351 48.0567 86.6221 47.9683L86.5894 47.794C85.5343 43.5998 83.3173 39.6553 80.568 36.3376C79.9059 35.5385 79.1385 34.8374 78.4698 34.0542C78.0695 33.5853 77.4373 33.022 76.9083 32.6891C76.8093 32.4963 76.4082 32.2693 76.2278 32.1304L74.8689 31.1224C74.5302 30.8746 74.2137 30.6163 73.8326 30.4349C73.607 30.4508 73.1193 30.0313 72.9096 29.8992L71.2658 28.9508C69.0655 27.785 66.7886 26.8421 64.4001 26.1318C64.4612 26.0957 64.4402 26.116 64.4794 26.0661C64.6288 25.8762 64.8177 25.7795 65.0122 25.6433C65.2352 25.4873 65.5637 25.1635 65.724 24.9433C65.7741 24.8745 65.7949 24.8348 65.866 24.7824C66.0943 24.614 66.3263 24.3742 66.4875 24.1408C66.8368 23.6356 67.282 23.3624 67.7835 23.0358C68.0039 22.8921 68.2052 22.7278 68.4336 22.5971C68.6893 22.4508 69.0408 22.157 69.1888 21.9044C69.305 21.7061 69.4823 21.6392 69.5964 21.4589L69.6455 21.3779C69.7713 21.3381 69.7112 21.3626 69.8264 21.3049C69.7511 21.223 69.7816 21.261 69.7116 21.1625L69.6604 21.0891Z" fill="url(#paint0_linear_2057_34)"/>
<path d="M13.5783 39.2814C13.493 39.234 13.4889 39.2497 13.4492 39.1531L44.7785 8.85309L44.7824 19.1857C46.2866 18.8379 47.7808 18.5148 49.3127 18.3084C54.5593 17.6014 59.813 17.9295 64.9174 19.3326C66.03 19.6385 67.109 20.0055 68.1801 20.4348C68.6679 20.6304 69.2083 20.8225 69.6604 21.0892L69.7116 21.1625C69.7816 21.2611 69.7511 21.223 69.8264 21.3049C69.7112 21.3626 69.7713 21.3381 69.6455 21.3779L69.5964 21.4589C69.4824 21.6393 69.305 21.7062 69.1889 21.9044C69.0408 22.157 68.6893 22.4508 68.4337 22.5971C68.2052 22.7278 68.004 22.8922 67.7835 23.0358C67.282 23.3624 66.8369 23.6356 66.4875 24.1408C66.3263 24.3742 66.0943 24.614 65.866 24.7824C65.7949 24.8348 65.7741 24.8745 65.724 24.9433C65.5637 25.1635 65.2352 25.4873 65.0122 25.6433C64.8177 25.7795 64.6288 25.8762 64.4794 26.0661C64.4402 26.116 64.4612 26.0957 64.4002 26.1318C66.7886 26.8421 69.0655 27.7851 71.2659 28.9509L72.9096 29.8992C73.1194 30.0313 73.607 30.4508 73.8326 30.4349C74.2137 30.6164 74.5302 30.8747 74.8689 31.1224L76.2279 32.1304C76.4082 32.2693 76.8093 32.4963 76.9083 32.6891C77.4373 33.022 78.0695 33.5854 78.4698 34.0542C79.1385 34.8374 79.9059 35.5385 80.568 36.3376C83.3174 39.6553 85.5343 43.5998 86.5894 47.794L86.6221 47.9683C86.6351 48.0568 86.6594 48.1216 86.6852 48.2058L86.8016 48.8141L86.8867 49.2871L87.1895 51.324C87.292 51.8835 87.2865 52.5163 87.3032 53.0839C87.3135 53.4366 87.3694 53.761 87.3058 54.1152C87.2653 54.3417 87.3329 54.5259 87.3344 54.7439C87.335 54.834 87.2981 54.9299 87.289 55.0205C87.2612 55.2959 87.3075 55.5128 87.2095 55.7795C87.1245 56.011 87.2811 56.2528 87.1834 56.5042C87.1013 56.7153 87.194 57.0157 87.0828 57.1831C87.0826 57.3291 87.1127 57.5151 87.0325 57.6357C87.0323 57.7696 87.0578 57.8739 86.9822 57.9878L86.9838 58.0331C86.9875 58.1676 86.9587 58.2169 86.9319 58.3399L86.9188 58.5285C86.9214 58.2758 86.949 57.9133 87.0109 57.6707C87.093 57.3488 87.0368 56.9487 87.0956 56.6176C87.1408 56.3622 87.0787 56.0577 87.0577 55.7978L87.0453 54.241C86.8295 47.2476 83.7698 40.7486 79.0617 35.6445C78.4226 34.9517 77.7165 34.3386 77.0334 33.6924C75.3154 32.2489 73.5324 30.9609 71.5946 29.8256C71.1708 29.5774 70.6756 29.2444 70.2104 29.0984C69.9442 28.91 69.6396 28.7789 69.3485 28.6334C68.5967 28.2573 67.813 27.9454 67.0328 27.6349C60.3926 24.9929 52.8998 24.5239 45.8887 25.7276C42.9716 26.2285 40.0182 26.9433 37.2113 27.8835C34.1546 28.9076 31.2012 30.2046 28.3074 31.62L21.2832 35.2786L18.885 36.6104C18.6766 36.725 18.2628 36.8839 18.1149 37.055C16.6549 37.8361 15.1332 38.7077 13.5783 39.2814Z" fill="url(#paint1_linear_2057_34)"/>
<path d="M18.1149 37.0549C18.2628 36.8839 18.6766 36.725 18.885 36.6104L21.2832 35.2786L28.3074 31.62C31.2012 30.2045 34.1546 28.9076 37.2113 27.8835C40.0182 26.9432 42.9716 26.2285 45.8887 25.7276C52.8998 24.5239 60.3926 24.9929 67.0328 27.6349C67.813 27.9454 68.5967 28.2573 69.3485 28.6334C69.6396 28.7789 69.9441 28.91 70.2104 29.0984C70.6756 29.2444 71.1708 29.5774 71.5946 29.8256C73.5324 30.9609 75.3154 32.2489 77.0333 33.6924C77.7165 34.3386 78.4226 34.9517 79.0617 35.6445C83.7698 40.7486 86.8295 47.2476 87.0453 54.241L87.0577 55.7978L87.049 55.8502C86.9838 56.2704 86.9943 56.699 86.9591 57.1223L86.7 59.1455C86.3941 61.1103 85.794 63.1319 85.1528 65.0113C85.0832 65.2153 84.9267 65.8162 84.768 65.9472C84.5519 66.0564 84.4054 66.471 84.2802 66.6786L83.5954 67.7381C82.3538 69.5493 81.0735 71.2982 79.624 72.9515C73.8187 79.5732 66.3498 84.3852 58.4153 88.0729L55.6709 89.2952C54.8842 89.6364 54.0089 90.0603 53.1607 90.2041L56.5164 86.8143L63.8747 79.3509C65.8764 77.3176 67.9472 75.3525 69.6192 73.0307C70.2066 72.0364 70.8696 71.1163 71.4002 70.0803C73.4305 66.1165 74.516 61.2367 73.8194 56.7964C72.9088 50.9914 69.6311 46.1551 64.9045 42.7386C60.3431 39.4415 54.4616 37.8173 48.8591 38.2074C47.438 38.3062 46.1056 38.6242 44.7081 38.8481L44.708 54.7867L18.1149 37.0549Z" fill="url(#paint2_linear_2057_34)"/>
<path d="M44.7081 38.8481L44.675 34.168C45.8433 33.9483 47.0054 33.7068 48.1901 33.5933C51.6311 33.2635 55.3611 33.6628 58.6416 34.7565C60.6961 35.4415 62.6662 36.4241 64.5078 37.5571C65.5894 38.3479 66.6952 39.0287 67.7194 39.9077C68.2026 40.3225 68.647 40.7987 69.0946 41.2516C69.7393 41.9039 70.3665 42.5606 70.941 43.2771C73.2257 46.1265 74.9112 49.7722 75.4868 53.386C76.503 59.7642 74.7558 66.3422 70.9653 71.5417L70.2198 72.5864C70.1378 72.6967 70.0021 72.8988 69.8821 72.9584C69.8108 72.9937 69.698 73.009 69.6192 73.0307C70.2066 72.0364 70.8696 71.1163 71.4002 70.0803C73.4305 66.1165 74.516 61.2367 73.8194 56.7964C72.9088 50.9914 69.6311 46.1551 64.9045 42.7386C60.3431 39.4415 54.4616 37.8173 48.8591 38.2074C47.438 38.3062 46.1056 38.6242 44.7081 38.8481Z" fill="#7B2CBF"/>
<defs>
<linearGradient id="paint0_linear_2057_34" x1="88.8896" y1="74.1949" x2="62.3713" y2="25.0836" gradientUnits="userSpaceOnUse">
<stop stop-color="#A72FCC"/>
<stop offset="1" stop-color="#FFA1F7"/>
</linearGradient>
<linearGradient id="paint1_linear_2057_34" x1="91.1046" y1="47.2815" x2="20.3063" y2="20.7642" gradientUnits="userSpaceOnUse">
<stop stop-color="#FA7CFD"/>
<stop offset="1" stop-color="#FFFFF6"/>
</linearGradient>
<linearGradient id="paint2_linear_2057_34" x1="78.3417" y1="74.2854" x2="27.6657" y2="26.8107" gradientUnits="userSpaceOnUse">
<stop stop-color="#A612EA"/>
<stop offset="1" stop-color="#E5C5EE"/>
</linearGradient>
</defs>
</svg>
