<svg width="103" height="103" viewBox="0 0 103 103" fill="none" xmlns="http://www.w3.org/2000/svg">
<path d="M20.3958 74.2871C20.6839 74.2763 20.9249 74.2747 21.1985 74.3881C21.532 74.5265 21.8208 74.8574 21.9452 75.1928C22.0678 75.5228 22.0495 75.8369 21.9014 76.1549C21.7139 76.5574 21.3299 76.765 20.9356 76.916C20.6515 76.9448 20.3821 76.9826 20.1135 76.8631C19.7508 76.7017 19.4871 76.4252 19.359 76.0468C19.2404 75.6967 19.272 75.3295 19.437 75.0004C19.634 74.6079 19.9966 74.4173 20.3958 74.2871Z" fill="#3C096C"/>
<path d="M75.177 81.2441L77.7543 83.7647L75.2634 86.2053L75.1678 86.2312L72.705 83.6608L75.177 81.2441Z" fill="#3C096C"/>
<path d="M52.2438 88.5852C51.8141 88.6423 51.3002 88.6423 50.87 88.588C49.9399 88.4705 49.0472 88.2185 48.2672 87.68C47.5205 87.1647 46.8851 86.4296 46.2444 85.788L43.5606 83.1143L32.2723 71.796L20.8848 60.407L17.3832 56.9203C16.8657 56.3931 16.3178 55.8719 15.841 55.3076C15.1961 54.5443 14.7178 53.5936 14.5403 52.6069C14.4668 52.1984 14.4279 51.8189 14.4332 51.4018C14.4489 50.1582 14.8876 48.9644 15.6313 47.9754C15.9478 47.5544 16.3496 47.1857 16.7216 46.8144L18.3973 45.1428L24.6962 38.8979L36.8252 26.8675L47.3753 16.368C48.5121 15.2532 50.0529 14.7146 51.6298 14.7314C52.8447 14.7443 54.0075 15.1335 54.9842 15.8607C56.035 16.643 56.9584 17.7518 57.8857 18.6796L63.1309 23.8844L75.8856 36.6302L82.6938 43.3631L85.9668 46.6329C86.6099 47.2836 87.3337 47.9436 87.8367 48.7101C88.232 49.3126 88.4711 49.9329 88.5803 50.645L88.5918 50.7166C88.8102 52.185 88.2941 53.5425 87.4123 54.6936C86.7659 55.5373 85.9152 56.2575 85.1611 57.0057L81.2837 60.8741L69.0134 73.2481L64.1083 78.2567L63.5041 78.8569C63.4516 78.909 63.3371 79.0491 63.2741 79.0696L57.5439 84.8484L55.7851 86.6223C55.3816 87.0292 54.9894 87.4546 54.5149 87.7809C53.8605 88.231 53.0378 88.5261 52.2438 88.5852Z" fill="url(#paint0_linear_2091_406)"/>
<path d="M84.2526 51.9408L84.259 51.9845C84.2787 52.1386 84.2625 52.2109 84.203 52.352C84.1711 52.4274 84.1833 52.3989 84.1758 52.5056L84.259 52.458L84.3726 52.5827L84.4748 52.5644L84.5834 52.6734L84.6556 52.6503C84.7722 52.6165 84.7096 52.6299 84.8126 52.6267C84.9032 52.6238 84.9463 52.5893 85.0203 52.5422L85.1267 52.5759C85.1799 52.5367 85.2149 52.5306 85.2312 52.465C85.2691 52.3124 85.2934 52.2472 85.4125 52.1387C85.3186 52.7707 85.0057 53.3112 84.5887 53.7896C84.0546 54.4024 83.4324 54.9648 82.864 55.5474L77.3237 61.0522L62.6395 75.6926L56.655 81.6657L54.8267 83.4937C54.3642 83.9546 53.9083 84.4381 53.3812 84.826C52.8796 85.1951 52.3505 85.3795 51.728 85.4085C51.8294 84.9964 51.9224 84.5113 51.8772 84.0876L51.6932 84.001C52.2267 83.9916 52.645 83.92 53.0764 83.5721C53.4268 83.2897 53.7435 82.9317 54.0634 82.6129L55.802 80.8793L61.4024 75.3335L82.9532 53.8651C83.5405 53.2892 83.98 52.7191 84.2526 51.9408Z" fill="#C77DFF"/>
<path d="M49.8021 84.9534L49.4216 84.6433C48.4705 83.8259 47.5987 82.8989 46.7119 82.0118L43.137 78.4558L36.4935 71.9081L32.6421 68.0212L26.2382 61.6701L23.5974 58.9868L20.3028 55.7645C19.706 55.1806 19.0411 54.6016 18.5117 53.9559C17.9653 53.2893 17.6231 52.4818 17.5674 51.6185C17.5026 50.6121 17.8851 49.6672 18.5483 48.9239C19.0479 48.3638 19.6359 47.8564 20.1702 47.3271L23.6779 43.8396L36.34 31.3226L45.383 22.3295L47.8634 19.8506C48.2778 19.4356 48.6901 18.9645 49.1454 18.5971C49.7797 18.0852 50.5025 17.8051 51.3197 17.773C52.1044 17.7422 52.832 17.9167 53.4701 18.386C53.8359 18.655 54.1434 19.0237 54.471 19.3385L56.9586 21.8096L60.4583 25.2826L72.9572 37.779L75.3005 40.0245L79.7396 44.4444L81.702 46.3627C82.8069 47.6406 84.3129 48.6879 85.1767 50.1506C85.4124 50.7322 85.592 51.5163 85.4126 52.1387C85.2935 52.2472 85.2691 52.3124 85.2312 52.465C85.2149 52.5306 85.1799 52.5367 85.1267 52.5759L85.0203 52.5422C84.9463 52.5893 84.9032 52.6238 84.8127 52.6266C84.7096 52.6299 84.7722 52.6165 84.6556 52.6503L84.5834 52.6734L84.4748 52.5644L84.3726 52.5827L84.259 52.458L84.1758 52.5055C84.1833 52.3989 84.1711 52.4274 84.203 52.3519C84.2626 52.2109 84.2787 52.1386 84.259 51.9845L84.2526 51.9408L84.2588 51.8517L84.2905 51.5251C84.2862 50.9514 83.9298 50.4533 83.5737 50.0348C83.0774 49.4515 82.5176 48.9118 81.9814 48.365L78.9217 45.3016L71.7797 38.1965L69.9617 36.4784L63.3851 29.9065L53.3279 19.9605C52.7254 19.3659 52.2037 19.0935 51.3405 19.1044C50.8088 19.1111 50.3924 19.2811 49.969 19.6019C49.4549 19.9912 48.9899 20.5462 48.5284 21.002L45.9039 23.5723L35.6311 33.7848C34.7081 34.5462 33.8647 35.5067 33.0109 36.35L28.102 41.1782L22.6285 46.6554C21.6617 47.6272 20.5888 48.5919 19.7085 49.6418C19.4689 49.9274 19.3419 50.3382 19.2787 50.7008L19.2785 50.7128C19.1984 51.4293 19.1573 52.0446 19.6322 52.652C19.9495 53.0578 20.3636 53.408 20.729 53.7716L22.7118 55.7652L30.9059 63.8746L44.3856 77.4515L48.3754 81.4142L50.3389 83.3425C50.7279 83.697 51.1767 83.9076 51.6932 84.001L51.8772 84.0876C51.9224 84.5113 51.8294 84.9964 51.728 85.4085L50.9623 85.3806C50.5278 85.2474 50.2019 85.1924 49.8021 84.9534Z" fill="#E0AAFF"/>
<path d="M35.6311 33.7848L45.9039 23.5723L48.5284 21.002C48.9899 20.5462 49.4549 19.9912 49.969 19.6019C50.3925 19.2811 50.8088 19.1111 51.3405 19.1044C52.2037 19.0935 52.7254 19.3659 53.3279 19.9605L63.3851 29.9065L69.9617 36.4784L71.7797 38.1965L78.9217 45.3016L81.9814 48.365C82.5176 48.9118 83.0775 49.4515 83.5737 50.0348C83.9298 50.4533 84.2862 50.9514 84.2905 51.5251L84.2588 51.8517L84.2526 51.9408C83.98 52.7191 83.5406 53.2892 82.9532 53.8651L61.4024 75.3335L55.802 80.8793L54.0634 82.6129C53.7435 82.9317 53.4268 83.2897 53.0764 83.5721C52.645 83.9199 52.2267 83.9916 51.6932 84.001C51.1767 83.9076 50.7279 83.697 50.3389 83.3425L48.3754 81.4142L44.3856 77.4515L30.9059 63.8746L22.7118 55.7652L20.729 53.7716C20.3636 53.408 19.9495 53.0578 19.6322 52.652C19.1573 52.0446 19.1984 51.4293 19.2785 50.7128L19.2787 50.7008C19.3419 50.3382 19.4689 49.9274 19.7085 49.6418C20.5888 48.5919 21.6617 47.6272 22.6285 46.6554L28.102 41.1782L33.0109 36.35C33.8647 35.5067 34.7081 34.5462 35.6311 33.7848Z" fill="url(#paint1_linear_2091_406)"/>
<path d="M31.1967 62.9206C31.3693 62.9733 31.4231 63.0098 31.5365 63.1468C32.0324 63.7459 32.6231 64.3083 33.174 64.8591L35.5084 67.1923C35.9184 67.6022 36.3923 68.0094 36.7585 68.4567C36.8108 68.5205 36.8644 68.5694 36.9246 68.625C37.3103 68.981 37.6607 69.4684 38.0969 69.7563L38.1975 69.6301L38.0974 69.5049L38.16 69.354L38.1223 69.2911C38.0589 69.1801 38.0766 69.0251 37.9968 68.9768L37.9963 68.9014L37.9495 68.8558C37.8797 68.7856 37.9052 68.8142 37.846 68.7253L37.9083 68.6625C37.7863 68.5573 37.6789 68.4536 37.5691 68.3356L35.9245 66.69C35.7074 66.4692 35.5296 66.2285 35.3092 66.0083L33.9779 64.7036C33.8598 64.5781 33.6756 64.4372 33.6209 64.2744L33.5786 64.2641C33.4515 64.2164 33.4182 64.1154 33.3568 64.0104C33.305 63.9217 33.1872 63.8281 33.0928 63.7966L33.1179 63.7041L44.8491 75.5012L48.0834 78.7409C49.3595 79.9658 50.7681 81.169 51.8315 82.5849C51.6907 82.6687 51.5072 82.6596 51.3491 82.6355C50.9425 82.5735 50.6402 82.3691 50.3374 82.1074C49.2258 81.1459 48.1884 80.0232 47.142 78.9877L40.0672 71.8865L34.4209 66.2429L32.1209 63.9151C31.8095 63.5877 31.4807 63.2727 31.1967 62.9206Z" fill="#7B2CBF"/>
<path d="M39.2546 33.3858L42.1373 30.5191L47.6492 24.9911L49.6368 22.9794C49.9836 22.6284 50.3352 22.2124 50.7312 21.9195C50.9838 21.7327 51.2443 21.6618 51.557 21.678C51.8824 21.6948 52.1249 21.833 52.3628 22.0495C52.8379 22.4819 53.2688 22.9716 53.722 23.4273L56.5052 26.2034L62.7101 32.3635L66.9303 36.6218L71.2352 40.8237L75.6155 45.2058L79.1078 48.6956C79.8892 49.4737 80.7353 50.2412 81.4567 51.0729C81.6608 51.3083 81.6975 51.4652 81.6765 51.7732C81.6633 51.967 81.5989 52.1813 81.5309 52.3622L81.4774 52.4046C80.8458 52.1289 80.2173 51.3382 79.7272 50.8486L77.1523 48.2609L72.0169 43.1315L51.6764 22.8663L51.5251 22.6769C51.2568 22.829 50.9862 23.187 50.7686 23.4126L49.1904 25.0233L39.7055 34.5034L36.6189 37.6248L35.8745 38.3563C35.82 38.4097 35.6728 38.5261 35.6479 38.5896C35.2868 38.8466 34.9472 39.2716 34.6314 39.5911L32.4034 41.8403L24.1683 50.0605L22.7505 51.4669C22.5496 51.6667 22.3123 51.9616 22.07 52.1001C21.853 51.8537 21.5449 51.5744 21.3907 51.2896L39.1963 33.4565L39.2546 33.3858Z" fill="#FDFDFD"/>
<path d="M19.2785 50.7128L19.3445 50.7456L19.3541 50.796C19.4116 51.0699 19.5466 51.2598 19.726 51.4697C20.0647 51.8658 20.4803 52.21 20.8514 52.5764L22.5314 54.296L31.1967 62.9206C31.4807 63.2727 31.8095 63.5877 32.1209 63.9151L34.4209 66.2429L40.0672 71.8866L47.142 78.9877C48.1884 80.0233 49.2258 81.1459 50.3374 82.1074C50.6402 82.3691 50.9425 82.5735 51.3491 82.6355C51.5072 82.6596 51.6907 82.6687 51.8315 82.5849L59.5358 74.9264L74.5544 60.0014L79.307 55.2709L80.3488 54.2195C80.6068 53.9605 80.8939 53.703 81.097 53.3982L81.1413 53.3292C81.3206 53.054 81.4795 52.7388 81.4774 52.4046L81.5309 52.3622L82.9532 53.8651L61.4024 75.3336L55.802 80.8794L54.0634 82.613C53.7435 82.9317 53.4268 83.2897 53.0764 83.5721C52.645 83.92 52.2267 83.9916 51.6932 84.001C51.1767 83.9076 50.7279 83.6971 50.3389 83.3425L48.3754 81.4143L44.3856 77.4515L30.9059 63.8746L22.7118 55.7653L20.729 53.7716C20.3636 53.408 19.9495 53.0578 19.6322 52.652C19.1573 52.0446 19.1984 51.4293 19.2785 50.7128Z" fill="#5A189A"/>
<path d="M51.6574 38.3378L54.2897 38.348C55.7899 38.3596 57.0031 38.3051 58.1348 39.4388C58.6564 39.9615 59.0146 40.6554 59.0987 41.3911C59.1772 42.0789 59.1424 42.7898 59.1432 43.4821L59.1452 46.816L59.1437 49.8507C59.1429 50.492 59.1809 51.1579 59.0774 51.7921C58.9877 52.3417 58.7441 52.817 58.4058 53.253C57.859 53.958 57.0657 54.5383 56.1606 54.6625L54.729 54.7105L54.664 54.7155L51.6902 54.7172L51.6901 59.7594L58.9954 59.7702L59.0039 64.7782L51.6833 64.7763L43.997 64.7774L43.9695 64.7333L43.9635 56.5978L43.9685 54.4045C43.9703 53.9335 43.9391 53.4133 44.0393 52.9523C44.2222 52.1113 44.6554 51.352 45.256 50.7382C45.7712 50.2117 46.5079 49.7713 47.2256 49.5961C47.8374 49.4467 48.4813 49.4878 49.1069 49.4871L51.692 49.4877L51.6538 43.1898L48.9878 43.1947L48.9959 46.6029L43.8269 46.6012L43.835 43.2731C43.8394 42.6013 43.7583 41.7665 43.927 41.1203L43.9496 41.0391C44.0338 40.7287 44.1404 40.441 44.3001 40.1605C44.7738 39.3292 45.5166 38.7392 46.4401 38.4795L46.5182 38.458C47.1638 38.2777 47.9665 38.3334 48.6371 38.3322L51.6574 38.3378Z" fill="#FDFDFD"/>
<path d="M51.6538 43.1898L53.916 43.1951V49.4835L51.692 49.4877L51.6538 43.1898Z" fill="#7B2CBF"/>
<path d="M51.6901 59.7594L48.89 59.7664L48.8847 54.673L54.729 54.7105L54.664 54.7155L51.6902 54.7172L51.6901 59.7594Z" fill="#9D4EDD"/>
<path d="M51.6764 22.8663L72.0169 43.1315L77.1523 48.2609L79.7272 50.8486C80.2173 51.3382 80.8458 52.1289 81.4774 52.4046C81.4795 52.7388 81.3206 53.054 81.1413 53.3292L81.097 53.3982C80.8939 53.703 80.6068 53.9605 80.3488 54.2194L79.307 55.2709L74.5544 60.0014L59.5358 74.9264L51.8315 82.5849C50.7681 81.169 49.3595 79.9658 48.0834 78.7409L44.8491 75.5012L44.9593 75.4575L45.0871 75.5652C45.1365 75.6287 45.103 75.6385 45.1631 75.6786C45.2678 75.7486 45.2208 75.671 45.276 75.7915L45.3014 75.8544L45.3894 75.8921C45.4512 76.0775 47.7977 78.4092 48.0801 78.6079C48.2201 78.7065 48.3242 78.814 48.4447 78.9351L48.8345 79.3372L48.9099 79.3377L51.148 81.6003L51.2611 81.7135C51.3342 81.8332 51.2617 81.7698 51.3334 81.8377C51.4048 81.9054 51.4761 81.9646 51.5416 82.0391L51.6006 82.1066L51.599 79.2191C51.5991 78.8878 51.5371 78.389 51.6257 78.0803L51.6509 78.0044C51.5266 77.8179 51.6006 74.5416 51.6006 74.0312C51.765 73.7845 51.6728 65.798 51.6833 64.7763L59.0039 64.7782L58.9954 59.7702L51.6901 59.7594L51.6902 54.7172L54.664 54.7155L54.729 54.7105L56.1607 54.6625C57.0657 54.5383 57.859 53.958 58.4058 53.253C58.7441 52.817 58.9877 52.3417 59.0774 51.7921C59.1809 51.1579 59.1429 50.492 59.1437 49.8507L59.1452 46.816L59.1432 43.4821C59.1424 42.7898 59.1772 42.0789 59.0987 41.3911C59.0146 40.6554 58.6564 39.9615 58.1349 39.4388C57.0032 38.3051 55.7899 38.3596 54.2898 38.348L51.6574 38.3378L51.6442 35.6412C51.6931 35.536 51.6615 35.2223 51.6614 35.0923L51.6593 33.6078L51.6485 26.4863C51.6481 25.2993 51.5699 24.0463 51.6764 22.8663Z" fill="url(#paint2_linear_2091_406)"/>
<rect x="29" y="50" width="13" height="3" rx="1.5" fill="white"/>
<circle cx="35.5" cy="46.5" r="1.5" fill="white"/>
<circle cx="35.5" cy="56.5" r="1.5" fill="white"/>
<defs>
<linearGradient id="paint0_linear_2091_406" x1="70.952" y1="72.4866" x2="31.9975" y2="30.6454" gradientUnits="userSpaceOnUse">
<stop stop-color="#6B0C90"/>
<stop offset="1" stop-color="#C84FAB"/>
</linearGradient>
<linearGradient id="paint1_linear_2091_406" x1="67.5568" y1="31.0731" x2="36.7143" y2="70.3895" gradientUnits="userSpaceOnUse">
<stop stop-color="#7A20E0"/>
<stop offset="1" stop-color="#B27AE5"/>
</linearGradient>
<linearGradient id="paint2_linear_2091_406" x1="61.9382" y1="22.0948" x2="67.9248" y2="80.7339" gradientUnits="userSpaceOnUse">
<stop stop-color="#610DBB"/>
<stop offset="1" stop-color="#AB6CE4"/>
</linearGradient>
</defs>
</svg>
