<svg width="67" height="38" viewBox="0 0 67 38" fill="none" xmlns="http://www.w3.org/2000/svg">
<path d="M58.0403 33.3678C56.9609 33.227 55.2311 33.1532 53.0388 33.113C39.8043 32.8515 10.0637 33.9778 10.0637 33.9778L8.58198 32.0135L8.37415 31.7453C8.37415 31.7453 9.03118 30.0223 9.15856 26.9785C9.15856 26.7639 9.17197 26.536 9.17867 26.308C9.19879 25.0208 9.11833 23.5324 8.86357 21.8563C8.86357 21.8563 10.1307 23.6129 11.9342 25.423C12.323 25.8052 12.7253 26.1874 13.1477 26.5561C17.1636 30.0357 22.7886 32.2012 24.411 19.3556C24.4446 19.141 24.4714 18.9131 24.4915 18.6918C24.5921 17.7935 24.6658 16.8414 24.7396 15.8157C24.4177 15.7888 24.1228 15.5877 23.9484 15.2927C23.8412 15.1117 23.7674 14.8905 23.7674 14.6491C23.7674 14.4077 23.8278 14.1865 23.9283 13.9988C23.9887 13.8915 24.0624 13.7909 24.1429 13.7105C24.3172 13.5429 24.5518 13.4356 24.7865 13.4289C25.3564 13.4222 25.8324 13.9585 25.8391 14.6156C25.8391 14.9441 25.7318 15.2458 25.5441 15.4603C25.4569 15.581 25.343 15.6749 25.2156 15.7285C25.3295 16.0034 25.4636 16.2984 25.6111 16.6403C25.8994 17.2638 26.2547 17.9812 26.6838 18.7522C29.6807 24.2364 35.7817 31.8459 41.2525 19.0539C41.3866 18.7388 41.5206 18.4103 41.648 18.0683C41.9564 17.2772 42.2715 16.4123 42.5799 15.467C42.1844 15.3061 41.9095 14.877 41.9028 14.3675C41.9028 14.1597 41.943 13.972 42.0235 13.811V13.7976C42.1374 13.5496 42.3185 13.3484 42.5531 13.2412H42.5598C42.6738 13.1875 42.7945 13.1607 42.9286 13.1607C43.0224 13.1607 43.1163 13.1741 43.2034 13.1942C43.6459 13.335 43.9677 13.7909 43.9744 14.3407C43.9744 14.7295 43.8202 15.0782 43.5655 15.286C43.4448 15.3866 43.3174 15.4603 43.1699 15.5073C43.237 15.7687 43.3241 16.0972 43.418 16.4392C43.5923 17.0828 43.8202 17.8471 44.0951 18.665C45.845 23.9414 49.405 31.5643 53.7226 26.2611C54.031 25.8789 54.3461 25.4298 54.6679 24.9135C55.2848 23.8877 55.9284 22.5871 56.572 20.9579C56.4982 21.2596 56.4982 22.748 56.5921 24.6118C56.6323 25.2353 56.6726 25.8991 56.7329 26.5695C56.8402 27.8299 56.9877 29.1306 57.1821 30.2904C57.229 30.572 57.276 30.8469 57.3363 31.1017C57.524 32.0537 57.7654 32.8582 58.0403 33.3745V33.3678Z" fill="url(#paint0_linear_2064_20346)"/>
<g style="mix-blend-mode:color-burn" opacity="0.3">
<path d="M43.2101 13.1808C43.6526 13.3216 43.9744 13.7775 43.9811 14.3273C43.9811 14.7161 43.8269 15.0581 43.5654 15.2726C43.6459 14.3809 43.5922 13.4691 43.2034 13.1808H43.2101Z" fill="#6E6E6E"/>
</g>
<g style="mix-blend-mode:color-burn" opacity="0.3">
<path d="M57.1889 30.277C56.9274 30.6994 56.6727 31.0615 56.4313 31.3296C55.5128 32.3554 54.306 32.8381 53.0389 33.113C39.7977 32.8448 10.0638 33.9779 10.0638 33.9779L8.37427 31.7386C8.37427 31.7386 9.12516 29.7541 9.17879 26.3013C10.2314 26.3684 11.0962 26.1874 11.9343 25.4097C15.9905 29.4524 22.8155 33.6695 24.4983 18.6717C24.847 18.3231 25.3632 17.4717 25.4973 17.1565C25.571 16.9956 25.6045 16.8146 25.6113 16.6269C28.0047 21.8027 35.3259 34.1455 41.6616 18.0616C42.2583 18.0549 42.9555 17.8605 43.217 17.2906C43.2706 17.17 43.3511 16.8481 43.4315 16.4392C44.8528 21.568 48.8822 34.3734 54.2926 25.4901C55.1307 25.4164 56.0425 25.061 56.5654 23.9347C56.6593 25.7181 56.8805 28.5071 57.1889 30.2837V30.277Z" fill="#6E6E6E"/>
</g>
<path d="M58.0471 33.3678C58.3689 33.9779 58.7511 34.2125 59.207 33.8639C59.4819 33.6493 59.0394 33.4884 58.0471 33.3678Z" fill="#D18B22"/>
<path d="M66.5144 18.4371C66.5278 19.2483 65.9646 19.9187 65.2606 19.9254C65.2204 19.9254 65.1802 19.9254 65.1333 19.9254C64.9455 19.912 64.7645 19.8383 64.617 19.731C64.617 19.7176 64.6036 19.7176 64.5969 19.7176C64.5634 19.7042 64.5299 19.6774 64.5098 19.6506C63.437 21.7759 62.6258 24.3101 62.0224 26.5829C61.4861 28.6143 61.1374 30.4446 60.9363 31.6045C60.7955 32.4023 60.7352 32.8783 60.7352 32.8783C60.7352 32.6973 60.648 32.5163 60.4603 32.3554C60.1586 32.0537 59.5954 31.7654 58.8043 31.5039C58.4423 31.3765 58.0333 31.2559 57.5707 31.1419C57.5372 31.1352 57.5104 31.1285 57.4701 31.1218C57.4232 31.1218 57.383 31.1017 57.3361 31.0883C56.8802 30.981 56.3773 30.8737 55.8276 30.7731C55.6667 30.7463 55.5125 30.7128 55.3448 30.6927C54.9761 30.6256 54.594 30.5653 54.2051 30.4983C52.7234 30.277 51.0272 30.0893 49.1567 29.9284C48.7746 29.8949 48.379 29.8613 47.9767 29.8345C47.7756 29.8211 47.5678 29.8077 47.3532 29.7876C47.1454 29.7742 46.9375 29.7608 46.723 29.7474C46.314 29.7206 45.885 29.6937 45.4626 29.6736C45.181 29.6602 44.8994 29.6401 44.6111 29.6267C44.3295 29.6133 44.0412 29.5999 43.753 29.5798C42.9551 29.5529 42.1305 29.5194 41.2992 29.4993C41.2053 29.4993 41.098 29.4926 40.9975 29.4926C40.6824 29.4926 40.3672 29.4792 40.0454 29.4725C39.5024 29.4591 38.9459 29.4524 38.3827 29.4457C38.1347 29.4457 37.8866 29.4457 37.6386 29.4457C36.2239 29.4457 34.7825 29.4457 33.3075 29.4591C33.2338 29.4591 33.1533 29.4591 33.0863 29.4658C32.3086 29.4792 31.5376 29.4926 30.78 29.506C29.3251 29.5462 27.9038 29.5999 26.5227 29.6736H26.4959C25.9729 29.7004 25.4567 29.7273 24.9539 29.7608C24.6388 29.7742 24.3236 29.801 24.0152 29.8144C23.8074 29.8278 23.5996 29.8412 23.3917 29.8613C22.9962 29.8882 22.6073 29.9217 22.2252 29.9485C21.9235 29.9686 21.6218 29.9954 21.3268 30.0223C21.2664 30.0223 21.1994 30.0223 21.1391 30.0357C20.6295 30.0826 20.1401 30.1228 19.6507 30.1698C19.1948 30.21 18.7523 30.2569 18.3165 30.3038C17.8874 30.3508 17.4651 30.3977 17.0427 30.4513C17.0226 30.4513 17.0025 30.458 16.989 30.458C16.3655 30.5318 15.7688 30.6055 15.1923 30.686C15.0448 30.7061 14.8973 30.7329 14.7498 30.753C14.4347 30.7933 14.1263 30.8402 13.8246 30.8871C12.1753 31.1486 10.7406 31.4369 9.56058 31.7453C9.56058 31.7453 9.56058 31.7453 9.54717 31.7453C9.2857 31.8123 9.04434 31.8794 8.80969 31.9531C8.73594 31.9732 8.65549 31.9933 8.58174 32.0202C8.42754 32.0738 8.28675 32.114 8.14595 32.1677C8.03868 32.1945 7.93812 32.2347 7.84426 32.2749C7.7504 32.3152 7.65653 32.3487 7.56938 32.3822C7.38836 32.4492 7.22075 32.523 7.06655 32.6034C6.6911 32.7912 6.40281 32.9789 6.21509 33.1666C6.04078 33.3342 5.95362 33.5219 5.95362 33.6963C5.94021 33.6225 5.84635 33.0392 5.66533 32.1274C5.4642 31.1821 5.16921 29.8613 4.78706 28.3864C4.13003 25.9661 3.20482 23.1033 1.9511 20.73C1.93769 20.7166 1.93099 20.6897 1.91758 20.6696C1.74326 20.8037 1.51531 20.8909 1.28736 20.8909C0.590108 20.9043 0.0135308 20.254 0.00012207 19.436C0.00012207 18.6851 0.469429 18.0683 1.08623 17.9678C1.13987 17.9544 1.20021 17.9476 1.25384 17.9476C1.30748 17.9476 1.3477 17.9476 1.40134 17.9544C1.72315 17.9879 2.01144 18.1756 2.21257 18.4371C2.4137 18.6918 2.53438 19.0338 2.54109 19.3958C2.54779 19.7981 2.407 20.1601 2.19916 20.4216C2.19916 20.4216 2.20363 20.4283 2.21257 20.4417C4.82728 23.5123 7.147 25.946 9.15832 26.9718C10.6735 27.7495 12.0077 27.7226 13.1474 26.5494C13.1877 26.5226 13.2212 26.4823 13.2614 26.4421C14.7431 24.8196 15.8895 21.2395 16.6873 14.9575C16.7477 15.0312 17.988 16.4928 19.7848 17.7063C20.6429 18.2963 21.6285 18.8192 22.6677 19.1142C23.2375 19.2751 23.8275 19.3623 24.4175 19.3489C24.6857 19.3489 24.9404 19.322 25.2086 19.2751C25.7047 19.188 26.2009 19.0204 26.6903 18.7455C28.6882 17.646 30.552 14.877 31.7856 9.21853C32.1678 7.46869 32.4829 5.45067 32.7309 3.11084V3.09743C32.7309 3.03038 32.7444 2.97004 32.7578 2.91641C32.1745 2.78232 31.7387 2.19904 31.732 1.49508C31.7253 1.00566 31.9264 0.563169 32.2415 0.294993C32.436 0.10727 32.6907 0 32.9723 0C33.2003 0 33.4081 0.0603395 33.5824 0.174314C33.9847 0.408968 34.2528 0.898388 34.2595 1.44815C34.2595 1.94427 34.0584 2.38676 33.7366 2.64823C33.5958 2.77562 33.4416 2.85607 33.2673 2.8963C33.2807 2.94993 33.2807 2.99686 33.2874 3.04379C34.7892 14.877 38.0408 18.6181 41.2589 19.0338C42.2244 19.1678 43.1898 18.9868 44.1016 18.6449C46.9845 17.5588 49.3176 14.7899 49.5657 14.4748C49.5657 14.4681 49.5791 14.4614 49.5858 14.4547C50.6116 21.3401 51.9994 24.9403 53.7291 26.241C54.6342 26.9382 55.6398 26.9919 56.7394 26.5494C58.8982 25.6912 61.4123 22.929 64.2818 19.3891C64.2818 19.3824 64.2818 19.3824 64.2818 19.3824C64.1142 19.1343 63.9935 18.8259 63.9935 18.4706C63.9935 18.3633 63.9935 18.2695 64.027 18.1555C64.0874 17.8136 64.2416 17.5186 64.4695 17.3107C64.6774 17.1029 64.9522 16.9822 65.2472 16.9822C65.2875 16.9822 65.321 16.9822 65.3612 16.9889C65.4014 16.9889 65.4417 16.9889 65.4819 17.009C66.0719 17.1163 66.5278 17.713 66.5345 18.4304L66.5144 18.4371Z" fill="url(#paint1_linear_2064_20346)"/>
<g style="mix-blend-mode:color-burn" opacity="0.1">
<path d="M62.0224 26.5829C61.486 28.621 61.1307 30.4446 60.9296 31.6045C59.173 30.8402 56.9539 29.9619 55.4722 29.7004C50.2092 28.7752 42.1237 28.326 33.2874 28.4601C23.499 28.6009 10.66 30.2435 5.66528 32.1207C5.46414 31.1754 5.17586 29.8546 4.787 28.3797C4.90098 27.0388 4.90098 25.5973 4.45178 24.3235C7.01286 26.9852 9.14485 28.5272 11.1226 28.4936C14.1664 28.4467 16.0973 24.8599 17.2907 16.9085C18.8059 18.3365 21.5145 20.388 24.4107 20.3411C28.7083 20.2741 31.6113 15.8559 33.0594 7.18039C34.6886 15.8022 37.6921 20.1467 41.9897 20.0863C44.8658 20.0461 47.5409 17.894 49.0293 16.4324C50.4037 24.3436 52.4083 27.8902 55.4655 27.8433C57.4232 27.8165 59.5216 26.2142 62.0224 23.4855C61.7274 24.3906 61.8011 25.47 62.0291 26.5896L62.0224 26.5829Z" fill="#6E6E6E"/>
</g>
<path d="M60.454 32.3621C58.6102 34.2393 47.186 35.835 33.3682 36.0428C19.5505 36.2439 8.09267 34.9835 6.20874 33.1666C6.02772 33.3409 5.94727 33.5153 5.94727 33.6963C5.97408 35.8082 18.2565 37.3368 33.3816 37.1155C48.5067 36.8943 60.7556 34.9969 60.7288 32.8917C60.7288 32.7107 60.6417 32.5364 60.454 32.3688V32.3621Z" fill="url(#paint2_linear_2064_20346)"/>
<path d="M60.454 32.3621C58.6102 34.2393 47.186 35.835 33.3682 36.0428C19.5505 36.2439 8.09267 34.9835 6.20874 33.1666C6.80543 32.5498 8.42119 31.9665 10.808 31.4503C15.7424 30.3776 23.9687 29.6066 33.2945 29.4658C42.6203 29.325 50.86 29.8546 55.8212 30.7798C58.2147 31.2223 59.8439 31.7587 60.454 32.3621Z" fill="url(#paint3_linear_2064_20346)"/>
<g style="mix-blend-mode:color-burn" opacity="0.2">
<path d="M55.8209 30.7731C50.8865 31.8391 42.6602 32.6101 33.3344 32.7442C24.0153 32.885 15.7689 32.3554 10.8143 31.4369C15.7488 30.3642 23.975 29.5932 33.3009 29.4524C42.6267 29.3116 50.8663 29.8412 55.8276 30.7664L55.8209 30.7731Z" fill="#6E6E6E"/>
</g>
<g style="mix-blend-mode:color-burn" opacity="0.3">
<path d="M60.896 31.7788C60.896 31.7788 60.8893 31.8526 60.8826 31.8794C60.7753 32.5096 60.7284 32.885 60.7284 32.885C60.7284 32.704 60.6413 32.5297 60.4535 32.3621C58.5696 30.5184 47.1185 29.258 33.2941 29.4591C19.4763 29.6602 8.05203 31.2626 6.20832 33.1599C6.0273 33.3342 5.94685 33.5153 5.94685 33.6896C5.94685 33.6896 5.87981 33.3141 5.76583 32.6504C5.75913 32.6102 5.74572 32.5833 5.74572 32.5431C5.74572 32.523 5.73901 32.5029 5.73901 32.4761C5.97367 32.1543 6.1748 31.8727 6.19491 31.8459C8.03862 29.9485 19.4629 28.3462 33.2806 28.145C47.1051 27.9372 58.5562 29.1976 60.4401 31.0413C60.5072 31.1017 60.6144 31.2693 60.7284 31.457C60.7888 31.5576 60.8424 31.6648 60.896 31.7721V31.7788Z" fill="#8F8F8F"/>
</g>
<g style="mix-blend-mode:color-burn" opacity="0.4">
<path d="M2.1924 20.4149C2.1924 20.4149 2.19911 20.4283 2.21252 20.435C2.12536 20.5288 2.04491 20.6294 1.95105 20.7166C1.94434 20.6964 1.93093 20.6763 1.92423 20.6562C1.74321 20.7903 1.52197 20.8708 1.28731 20.8775C0.590056 20.8842 0.0134787 20.2338 6.99523e-05 19.4226C-0.00663444 18.6717 0.469377 18.0549 1.08618 17.9543C0.864936 19.1008 0.744257 20.8238 2.53433 19.3824C2.53433 19.7846 2.40695 20.1467 2.1924 20.4082V20.4149Z" fill="#6E6E6E"/>
</g>
<g style="mix-blend-mode:color-burn" opacity="0.1">
<path d="M65.4687 17.0157C65.8575 18.0884 66.1726 19.6237 64.0138 18.1555C63.987 18.2628 63.9803 18.3633 63.9803 18.4773C63.9803 18.8259 64.101 19.1343 64.2686 19.3824C64.2686 19.3824 64.2753 19.3824 64.2753 19.3891C64.3222 19.4293 64.3692 19.483 64.4161 19.5299C63.6585 20.7903 61.4595 24.2699 58.1408 27.8903C57.6178 28.4601 58.0402 29.4323 48.0641 28.5272C57.1888 29.7474 56.7798 30.9609 55.3451 30.686C58 31.1352 59.8035 31.7118 60.4538 32.3554C60.6348 32.523 60.7287 32.6973 60.7287 32.8783C60.7287 32.8783 61.8014 25.0074 64.51 19.6439C64.5368 19.664 64.5636 19.6908 64.5971 19.7109C64.6038 19.7109 64.6172 19.7109 64.6172 19.7176C64.7044 19.7779 64.7982 19.8249 64.8988 19.8584C64.9323 19.8718 64.9659 19.8718 64.9994 19.8785C65.0463 19.8919 65.0932 19.9053 65.1402 19.912V19.8986C65.1804 19.8986 65.2206 19.9187 65.2676 19.9187C65.9648 19.9053 66.528 19.2416 66.5213 18.4304C66.5146 17.713 66.0587 17.1163 65.4687 17.009V17.0157Z" fill="#6E6E6E"/>
</g>
<g style="mix-blend-mode:color-burn" opacity="0.3">
<path d="M24.1427 13.6971C24.3103 13.5228 24.545 13.4222 24.7863 13.4155C25.3562 13.4088 25.8255 13.9384 25.8389 14.6022C25.8389 14.9307 25.7316 15.2324 25.5439 15.4469C25.5372 15.3061 25.4434 13.6837 24.1427 13.6971Z" fill="#6E6E6E"/>
</g>
<g style="mix-blend-mode:color-burn" opacity="0.2">
<path d="M49.5658 14.4882C48.8283 15.5609 48.1847 16.6269 47.6148 17.6795C45.4426 21.6954 44.39 25.5169 43.9006 28.5875C43.847 28.9294 43.8 29.2647 43.7531 29.5865C40.5283 29.4524 37.0018 29.4054 33.301 29.4524C33.2272 29.4524 33.1468 29.4524 33.0797 29.4591C33.1937 29.144 33.3144 28.8021 33.435 28.4534C33.7099 27.6489 33.9848 26.7572 34.2731 25.765C35.7615 20.6093 33.9982 14.81 32.3556 10.6198C32.1612 10.1303 31.9668 9.66102 31.7858 9.21183C32.1679 7.46198 32.483 5.44396 32.7311 3.10413V3.09072C32.959 2.61471 33.1468 2.09177 33.3479 1.61576C33.7703 0.603395 32.8585 0.348628 32.2484 0.288289C32.4361 0.10727 32.6909 0 32.9724 0C33.2004 0 33.4082 0.0603395 33.5825 0.174314C33.9848 0.408968 34.253 0.898388 34.2597 1.44815C34.2597 1.94427 34.0586 2.38676 33.7367 2.64823C33.596 2.77562 33.4418 2.85607 33.2674 2.8963C33.2808 2.94993 33.2808 2.99686 33.2876 3.04379C36.6733 29.734 48.9892 15.219 49.5725 14.4748L49.5658 14.4882Z" fill="#6E6E6E"/>
</g>
<path style="mix-blend-mode:soft-light" opacity="0.8" d="M21.327 30.0156C21.2666 30.0156 21.1996 30.0156 21.1393 30.029C20.6297 30.0759 20.1403 30.1161 19.6509 30.1631C19.195 30.2033 18.7525 30.2502 18.3167 30.2972C17.8876 30.3441 17.4652 30.391 17.0429 30.4446C17.0228 30.4446 17.0026 30.4514 16.9892 30.4514C16.3657 30.5251 15.769 30.5989 15.1925 30.6793C15.045 30.6994 14.8975 30.7262 14.75 30.7463C14.4349 30.7866 14.1265 30.8335 13.8248 30.8804C13.8248 30.8804 13.0336 30.2636 13.6639 29.5999L13.4158 27.6154L13.2616 26.4354C14.7433 24.813 15.8897 21.2328 16.6875 14.9508C16.7479 15.0246 17.9882 16.4861 19.785 17.6996L19.9392 18.9466L21.1728 28.7216C21.1728 28.7216 20.4152 29.3518 21.3337 30.0156H21.327Z" fill="url(#paint4_linear_2064_20346)"/>
<path style="mix-blend-mode:soft-light" opacity="0.8" d="M26.5161 29.6736H26.4893C25.9664 29.7004 25.4501 29.7273 24.9473 29.7608C24.6322 29.7742 24.3171 29.801 24.0087 29.8144C24.0087 29.8144 23.117 29.2915 23.8411 28.5205C23.7942 28.1249 22.7885 20.1668 22.7885 20.1668L22.6544 19.1075C23.4858 19.3422 24.3372 19.4226 25.1954 19.2684L25.3228 20.2607L26.3418 28.373C25.6848 28.9563 26.5094 29.6736 26.5094 29.6736H26.5161Z" fill="url(#paint5_linear_2064_20346)"/>
<g style="mix-blend-mode:soft-light" opacity="0.5">
<path d="M32.9926 1.19337C32.9926 1.58223 32.7847 1.89733 32.5233 1.89733C32.2618 1.89733 32.054 1.58223 32.054 1.19337C32.054 0.804517 32.2618 0.48941 32.5233 0.48941C32.7847 0.48941 32.9926 0.804517 32.9926 1.19337Z" fill="white"/>
</g>
<g style="mix-blend-mode:soft-light" opacity="0.5">
<path d="M24.2368 14.629C24.2368 14.924 24.1161 15.1787 23.9485 15.2726C23.8412 15.0916 23.7675 14.8703 23.7675 14.629C23.7675 14.3876 23.8278 14.1664 23.9284 13.9786C24.1094 14.0658 24.2368 14.3273 24.2368 14.629Z" fill="white"/>
</g>
<g style="mix-blend-mode:soft-light" opacity="0.5">
<path d="M65.3479 16.9956V17.0157C65.3479 17.4046 65.1333 17.7197 64.8718 17.7197C64.6841 17.7197 64.5232 17.5588 64.4562 17.3174C64.664 17.1096 64.9389 16.9889 65.2339 16.9889C65.2741 16.9889 65.3076 16.9889 65.3479 16.9956Z" fill="white"/>
</g>
<g style="mix-blend-mode:soft-light" opacity="0.5">
<path d="M42.9688 13.925C42.9688 14.3139 42.7609 14.629 42.4995 14.629C42.238 14.629 42.0234 14.3139 42.0234 13.925C42.0234 13.8781 42.0234 13.8379 42.0234 13.7976V13.7842C42.1374 13.5362 42.3184 13.335 42.5531 13.2278H42.5598C42.7877 13.2814 42.9554 13.5697 42.9554 13.925H42.9688Z" fill="white"/>
</g>
<g style="mix-blend-mode:soft-light" opacity="0.5">
<path d="M2.21277 18.4237C2.21277 18.8125 2.00494 19.1209 1.74347 19.1209C1.482 19.1209 1.26746 18.8125 1.26746 18.4237C1.26746 18.2292 1.32109 18.0616 1.40154 17.9409C1.72335 17.9745 2.01164 18.1622 2.21277 18.4237Z" fill="white"/>
</g>
<defs>
<linearGradient id="paint0_linear_2064_20346" x1="8.36744" y1="23.5592" x2="58.0403" y2="23.5592" gradientUnits="userSpaceOnUse">
<stop stop-color="#FFA91F"/>
<stop offset="1" stop-color="#FF8C2E"/>
</linearGradient>
<linearGradient id="paint1_linear_2064_20346" x1="0.00012207" y1="16.8414" x2="66.5144" y2="16.8414" gradientUnits="userSpaceOnUse">
<stop stop-color="#FFD945"/>
<stop offset="1" stop-color="#FF9D09"/>
</linearGradient>
<linearGradient id="paint2_linear_2064_20346" x1="5.96301" y1="35.2654" x2="60.7468" y2="34.5674" gradientUnits="userSpaceOnUse">
<stop offset="0.17" stop-color="#FFC420"/>
<stop offset="1" stop-color="#FFB820"/>
</linearGradient>
<linearGradient id="paint3_linear_2064_20346" x1="6.21036" y1="33.1033" x2="60.4512" y2="32.4122" gradientUnits="userSpaceOnUse">
<stop stop-color="#FFA81D"/>
<stop offset="1" stop-color="#FF671B"/>
</linearGradient>
<linearGradient id="paint4_linear_2064_20346" x1="15.6215" y1="16.533" x2="17.5323" y2="31.0346" gradientUnits="userSpaceOnUse">
<stop stop-color="white"/>
<stop offset="1" stop-color="white"/>
</linearGradient>
<linearGradient id="paint5_linear_2064_20346" x1="23.2377" y1="15.5207" x2="25.1417" y2="29.982" gradientUnits="userSpaceOnUse">
<stop stop-color="white"/>
<stop offset="1" stop-color="white"/>
</linearGradient>
</defs>
</svg>
