<svg width="104" height="103" viewBox="0 0 104 103" fill="none" xmlns="http://www.w3.org/2000/svg">
<path d="M38.2054 48.5677L38.8514 49.1901C39.1789 49.5052 39.6749 49.8359 39.9402 50.1947L36.2211 53.7731C36.0947 53.5821 36.1501 53.1465 36.1491 52.9143C36.1462 52.1786 36.1708 51.4376 36.1053 50.7043C36.2915 50.6566 36.4993 50.346 36.635 50.2064L38.2054 48.5677Z" fill="#5A189A"/>
<path d="M45.967 9.27484L65.836 12.234L65.8557 12.3052L65.2385 12.7202L65.1264 12.699L65.1013 12.6482C64.8059 12.5645 64.541 12.5827 64.2463 12.6421C64.0318 12.6854 63.7815 12.6867 63.5617 12.7113L61.696 12.9366L54.9406 13.6807L53.2933 13.8702C53.0006 13.9014 52.6699 13.9024 52.3868 13.9816C51.7012 14.0413 50.8417 14.0405 50.1861 14.2327C50.1268 13.9079 47.1945 10.7404 46.7555 10.1843C46.5067 9.86905 46.1823 9.61351 45.967 9.27484Z" fill="#E0AAFF"/>
<path d="M50.1023 40.1688L51.5296 41.5543C51.84 41.8657 52.3158 42.2348 52.5278 42.6132L52.5086 42.6643L51.5662 43.5826L51.2329 43.9401L50.9005 44.2074C50.4737 44.7712 49.8429 45.2844 49.3361 45.7849L47.05 48.0645V48.0661C46.708 48.4145 46.3691 48.8176 45.9908 49.1237L44.518 50.6255L43.3349 51.8449L42.5296 52.6472L40.0008 50.2093L43.9193 46.382C44.0135 46.2382 44.2205 46.0802 44.3447 45.9563L45.2349 45.0638L48.5222 41.7488L48.522 41.7437L49.0393 41.2217L50.1023 40.1688Z" fill="url(#paint0_linear_2058_105)"/>
<path d="M30.1525 48.0286L35.5232 53.4109L27.4628 60.9962C27.1905 60.7378 26.963 60.3897 26.728 60.0948L25.3153 58.3163L22.7404 55.147C23.0524 54.9125 23.3287 54.6005 23.6083 54.328L25.1872 52.7915L30.1525 48.0286Z" fill="url(#paint1_linear_2058_105)"/>
<path d="M45.0048 9.14674C45.2742 9.0864 45.6939 9.21682 45.967 9.27483C46.1823 9.6135 46.5067 9.86904 46.7555 10.1843C47.1945 10.7404 50.1268 13.9079 50.1861 14.2327L50.0678 14.3292C49.904 14.3895 49.8438 14.4417 49.7275 14.5723L41.7697 22.4915L36.7522 17.362L38.6428 15.4827L42.8509 11.2872L44.1388 9.98885C44.4129 9.7069 44.6828 9.37253 45.0048 9.14674Z" fill="url(#paint2_linear_2058_105)"/>
<path d="M45.0049 9.14674C45.2742 9.0864 45.6939 9.21682 45.9671 9.27483C46.1823 9.6135 46.5067 9.86904 46.7556 10.1843C47.1945 10.7404 50.1268 13.9079 50.1861 14.2327L50.0678 14.3292L46.3186 10.6165C45.8766 10.158 45.3424 9.68482 45.0049 9.14674Z" fill="#F8EBFE"/>
<path d="M87.8508 80.3401C88.0968 80.2412 88.4712 80.0729 88.739 80.1748C89.0212 80.2822 89.3381 80.592 89.5634 80.7892L91.3134 82.3994C91.7863 82.8321 92.3018 83.2367 92.7515 83.6916C92.8853 83.8269 92.9996 83.9777 93.0934 84.143C93.2617 84.7695 93.1581 85.6779 93.1094 86.3274C93.0433 86.6319 92.9614 86.8998 92.7787 87.1602C92.2874 87.8611 91.5413 88.5016 90.9453 89.1252C90.5731 89.5145 90.2236 89.9494 89.8359 90.3192L89.8332 90.3329C89.0018 91.2458 88.0596 92.2059 87.0065 92.8589C86.3409 93.2717 85.4777 93.4033 84.7138 93.2156L84.6401 93.1966C84.073 93.0554 83.7521 92.7853 83.3074 92.4263C82.5185 91.7895 81.809 91.0114 81.0667 90.3161C80.5258 89.8096 80.0721 89.3511 80.0465 88.5641C80.2779 87.9139 80.7642 87.441 81.2408 86.9602L81.2631 86.9637L83.6719 84.4381L84.13 84.0233C84.6833 83.4746 85.2135 82.7971 85.8128 82.3121L86.0402 82.0481L86.4145 81.6791L87.8508 80.3401Z" fill="url(#paint3_linear_2058_105)"/>
<path d="M83.6719 84.4381L84.13 84.0234L88.6834 88.6903L88.612 88.79L85.9141 91.5752L81.2631 86.9637L83.6719 84.4381Z" fill="url(#paint4_linear_2058_105)"/>
<path d="M87.8508 80.3401C88.0968 80.2412 88.4711 80.0729 88.739 80.1748C89.0211 80.2822 89.3381 80.592 89.5634 80.7892L91.3134 82.3994C91.7862 82.8321 92.3017 83.2367 92.7515 83.6916C92.8852 83.8269 92.9996 83.9777 93.0934 84.143C92.8499 84.5676 92.4416 84.9119 92.0958 85.2548L90.2466 87.1629C90.1951 87.2112 90.0127 87.4123 89.9577 87.4284L88.6834 88.6902L84.1299 84.0233C84.6833 83.4746 85.2135 82.7971 85.8128 82.3121L86.0402 82.0481L86.4145 81.6791L87.8508 80.3401Z" fill="url(#paint5_linear_2058_105)"/>
<path d="M65.836 12.234L66.0569 12.2793C66.0977 12.5518 65.8743 13.0327 65.7889 13.3047L62.7094 22.1219L61.9074 24.4452C61.7503 24.8947 61.6113 25.3857 61.3793 25.8018L53.3101 33.84C52.6899 33.3725 52.1705 32.6616 51.5919 32.1294C51.4743 32.0764 51.3559 31.9961 51.2554 31.9163C51.1241 31.8121 51.0636 31.7538 50.8936 31.7395L50.7959 31.8471L50.3481 31.4471L50.3076 31.4026L50.3377 31.3834C50.4554 31.283 50.4421 31.2561 50.4538 31.1062L49.8409 30.4465L49.9697 30.3955C49.817 30.1501 49.594 29.9556 49.3904 29.7525L48.2918 28.7256L54.4545 22.7472L54.4824 22.7145C54.7149 22.5402 54.926 22.3053 55.136 22.1034L56.3789 20.9016L56.3861 20.8695C56.7485 20.5983 57.0833 20.2083 57.4101 19.8915L59.6499 17.7296L62.7567 14.8306L65.2385 12.7202L65.8557 12.3052L65.836 12.234Z" fill="#7B2CBF"/>
<path d="M49.8409 30.4464L49.9697 30.3954L51.5919 32.1293C51.4743 32.0763 51.3558 31.9961 51.2553 31.9163C51.1241 31.8121 51.0635 31.7538 50.8935 31.7395L50.7959 31.8471L50.3481 31.4471L50.3075 31.4026L50.3377 31.3834C50.4554 31.283 50.4421 31.2561 50.4538 31.1062L49.8409 30.4464Z" fill="#C77DFF"/>
<path d="M50.9005 44.2074L51.2329 43.9401L52.3174 44.9574L87.8508 80.3401L86.4145 81.6791L86.0402 82.0482L49.3361 45.7849C49.8429 45.2844 50.4737 44.7712 50.9005 44.2074Z" fill="#7B2CBF"/>
<path d="M50.3481 31.4471L50.7959 31.8471L50.8935 31.7395C51.0635 31.7538 51.1241 31.8121 51.2554 31.9163C51.3558 31.9961 51.4743 32.0763 51.5919 32.1294C52.1705 32.6616 52.6899 33.3725 53.3101 33.84L54.6622 35.2379L54.7854 35.4314C54.7661 35.4977 54.7495 35.5573 54.7192 35.6197L54.715 35.6364C54.3031 35.9012 53.9718 36.2913 53.6354 36.6435L52.0458 38.2897C51.4203 38.9092 50.6619 39.4968 50.1023 40.1688L49.0393 41.2217L48.522 41.7437L48.5222 41.7488L45.2349 45.0638L44.3447 45.9563C44.2205 46.0802 44.0135 46.2381 43.9193 46.382L40.0008 50.2093L39.9401 50.1947C39.6749 49.8359 39.1789 49.5052 38.8514 49.1901L38.2054 48.5677L36.635 50.2064C36.4993 50.346 36.2915 50.6566 36.1053 50.7043L33.493 47.8518L50.3481 31.4471Z" fill="#7B2CBF"/>
<path d="M50.7959 31.8471L50.8936 31.7395C51.0636 31.7538 51.1241 31.8121 51.2554 31.9163C51.3559 31.9961 51.4744 32.0764 51.5919 32.1294C52.1705 32.6616 52.6899 33.3725 53.3101 33.84L54.6622 35.2379L54.7854 35.4314C54.7661 35.4977 54.7495 35.5573 54.7193 35.6197C54.3866 35.5219 53.8943 34.9218 53.6372 34.6722L50.7959 31.8471Z" fill="#E0AAFF"/>
<path d="M46.7723 37.3093L47.9324 36.189L49.955 38.1872L49.1615 38.981C49.0426 39.0997 48.921 39.2542 48.7772 39.3374L45.9914 42.0871L45.2238 42.8243C45.1525 42.8906 45.027 43.0397 44.9462 43.0769L38.8514 49.1902L38.2054 48.5677C37.8008 48.0541 37.2234 47.5866 36.742 47.1396C36.8423 46.9683 37.0516 46.8091 37.1961 46.6704L38.0625 45.8338L42.5421 41.4746L44.8111 39.2086C45.4444 38.5793 46.0777 37.8667 46.7723 37.3093Z" fill="url(#paint6_linear_2058_105)"/>
<path d="M52.3869 13.9817C52.6699 13.9024 53.0006 13.9014 53.2933 13.8702L54.9406 13.6807L61.696 12.9366L63.5618 12.7114C63.7815 12.6867 64.0318 12.6854 64.2463 12.6422C64.5411 12.5827 64.8059 12.5645 65.1013 12.6482L65.1265 12.699L65.2385 12.7202L62.7567 14.8306L59.6499 17.7296L57.4101 19.8915C57.0833 20.2083 56.7485 20.5983 56.3861 20.8695L56.3789 20.9016L55.136 22.1034C54.926 22.3053 54.7149 22.5402 54.4824 22.7145L54.4545 22.7472L48.2918 28.7256L49.3904 29.7525C49.594 29.9556 49.817 30.1501 49.9697 30.3955L49.8409 30.4465C49.5757 30.0899 49.1763 29.7667 48.8567 29.4563L46.7968 27.4615L41.7697 22.4915L49.7276 14.5723C49.8438 14.4417 49.904 14.3895 50.0679 14.3292L50.1861 14.2327C50.8418 14.0405 51.7013 14.0413 52.3869 13.9817Z" fill="url(#paint7_linear_2058_105)"/>
<path d="M49.3361 45.7849L86.0402 82.0482L85.8128 82.3121C85.2135 82.7971 84.6833 83.4747 84.13 84.0234L83.6719 84.4381L47.05 48.0661V48.0645L49.3361 45.7849Z" fill="#5A189A"/>
<path d="M19.6435 37.5236L19.6159 37.4852C18.9593 36.5318 18.1196 35.6591 17.3553 34.7891L15.5448 32.7198C15.9052 32.2361 16.3598 31.7136 16.8302 31.3386L24.4885 38.9986L24.4875 39.0184C24.3634 39.356 24.4244 39.858 24.4205 40.2186L24.3844 42.306L30.1525 48.0286L25.1872 52.7915L23.6083 54.328C23.3287 54.6006 23.0524 54.9125 22.7404 55.1471L22.4551 55.4021L22.4105 55.4635C22.2799 55.6367 22.0826 55.7784 21.9239 55.9279L21.0945 56.7053C20.7577 56.9939 20.454 57.3431 20.1343 57.6523L18.4527 59.2954L18.5168 59.3058C18.9653 58.9033 19.3733 58.3167 19.8694 57.9942C20.0677 57.8654 20.2351 57.6561 20.3991 57.4861C20.6478 57.2285 20.8964 56.9922 21.1704 56.7622C21.2015 56.7361 21.3265 56.6101 21.359 56.6028C21.4724 56.5777 21.511 56.6305 21.6212 56.5613C21.7761 56.4639 21.873 56.4271 22.0425 56.3721L22.1073 56.3395C22.1965 56.2988 22.2647 56.308 22.36 56.3124L22.4072 56.2844C22.4842 56.2414 22.5491 56.2371 22.6322 56.2161C22.7575 56.1844 22.858 56.1182 22.9669 56.0516C23.1827 56.0448 23.2051 56.0808 23.3866 56.16C23.4227 56.1757 23.4701 56.1753 23.509 56.1773C23.5736 56.2383 23.6234 56.2861 23.6694 56.3627C23.7515 56.4997 23.8757 56.5882 23.9617 56.7305L24.012 56.8064L23.9519 56.9065L23.981 56.9679C24.0139 57.044 24.0236 57.0906 24.0414 57.1675C24.1054 57.4443 24.2395 57.6251 24.423 57.8227C24.5489 57.9585 24.6382 58.2161 24.7647 58.3785C24.8085 58.4348 24.794 58.4414 24.8154 58.4964C24.8455 58.5735 24.9013 58.6029 24.9619 58.6564L25.4008 59.1307C25.5221 59.2708 25.5792 59.3946 25.646 59.5657C25.6948 59.6905 25.7404 59.7829 25.8324 59.8834L25.9175 59.9142C26.2017 60.0318 26.4359 60.255 26.7529 60.2918C26.8711 60.3946 26.9151 60.4726 27.0044 60.5857L27.1188 60.6928C27.1718 60.7428 27.1927 60.7949 27.2307 60.8545L27.3062 60.9551C27.2063 61.0371 27.1244 61.0642 27.0046 61.1063L26.9574 61.1243L26.7028 61.2069L26.6431 61.2179C26.5715 61.2324 26.519 61.2594 26.4512 61.2825L26.3508 61.3074C26.153 61.3649 25.9636 61.4552 25.7614 61.4953C25.6858 61.5103 25.6189 61.5343 25.5461 61.5588L24.941 61.7476L24.1346 62.0133C23.9938 62.0602 24.1318 62.0173 23.9868 62.0493L23.7371 62.1317C23.5899 62.1868 23.8195 62.1 23.5847 62.1624C23.4833 62.1893 23.3889 62.2359 23.2829 62.263L23.132 62.3133L22.3523 62.5901L22.2769 62.6025C22.1013 62.6402 21.9461 62.7266 21.7739 62.7661C21.6758 62.7888 21.6426 62.8224 21.5826 62.8952V62.9054L11.7931 66.0404L11.0615 66.286L10.9955 66.2382L11.0051 66.1772L12.4777 44.6066C12.5471 44.3286 13.8724 43.1568 14.1425 42.8899L19.6435 37.5236Z" fill="#5A189A"/>
<path d="M19.6435 37.5236C19.9634 37.9456 20.3872 38.3253 20.7579 38.706L22.9948 40.9567L23.8799 41.8278C23.9783 41.9256 24.1096 42.0168 24.1487 42.1501L19.3451 46.9245L17.9552 48.287C17.6428 48.5906 17.3086 48.884 17.0359 49.2238C16.7731 49.1469 16.3204 48.5557 16.103 48.335L12.4777 44.6066C12.5471 44.3286 13.8724 43.1568 14.1425 42.8899L19.6435 37.5236Z" fill="#9D4EDD"/>
<path d="M16.8302 31.3385C17.1329 31.1156 17.4189 30.7645 17.691 30.5003L19.8365 28.4144L30.1526 18.2963L33.3858 15.0352C33.5206 14.9061 33.6772 14.7052 33.8627 14.6826C34.9199 15.3697 35.8616 16.4687 36.7522 17.362L41.7697 22.4915L46.7968 27.4615L48.8567 29.4563C49.1763 29.7667 49.5757 30.0899 49.8409 30.4464L50.4538 31.1062C50.4421 31.2561 50.4554 31.283 50.3377 31.3834L50.3075 31.4026L50.3481 31.4471L33.493 47.8518L24.4875 39.0184L24.4885 38.9986L16.8302 31.3385Z" fill="url(#paint8_linear_2058_105)"/>
<path d="M33.8627 14.6826C34.9199 15.3697 35.8616 16.4687 36.7522 17.362L41.7697 22.4915L46.7968 27.4615L48.8567 29.4563C49.1762 29.7667 49.5757 30.0899 49.8409 30.4464L50.4538 31.1062C50.4421 31.2561 50.4554 31.283 50.3377 31.3834L50.3075 31.4026L41.3029 22.4841C40.9265 22.2055 40.5772 21.83 40.2437 21.5019L38.5562 19.8304C37.8041 18.966 33.9527 15.376 33.8627 14.6826Z" fill="#F8EBFE"/>
<path d="M16.8302 31.3385C17.1329 31.1156 17.4189 30.7645 17.691 30.5003L19.8365 28.4144L30.1526 18.2963L33.3858 15.0352C33.5206 14.9061 33.6772 14.7052 33.8627 14.6826C33.9527 15.376 37.8041 18.966 38.5562 19.8304L40.2437 21.5019C40.5773 21.83 40.9265 22.2055 41.3029 22.4841L37.2357 26.4452L31.597 32.046L26.7685 36.8594L24.7226 38.8712C24.6434 38.9443 24.5896 38.9682 24.4885 38.9986L16.8302 31.3385Z" fill="url(#paint9_linear_2058_105)"/>
<defs>
<linearGradient id="paint0_linear_2058_105" x1="41.1856" y1="51.3721" x2="51.3722" y2="41.3954" gradientUnits="userSpaceOnUse">
<stop stop-color="#7703DA"/>
<stop offset="1" stop-color="#FFDAFF"/>
</linearGradient>
<linearGradient id="paint1_linear_2058_105" x1="31.9321" y1="49.1204" x2="25.9696" y2="60.0179" gradientUnits="userSpaceOnUse">
<stop stop-color="#140070"/>
<stop offset="1" stop-color="#5E0CA5"/>
</linearGradient>
<linearGradient id="paint2_linear_2058_105" x1="37.6673" y1="18.7848" x2="49.0713" y2="12.7784" gradientUnits="userSpaceOnUse">
<stop stop-color="#A351D9"/>
<stop offset="1" stop-color="#E3A9FE"/>
</linearGradient>
<linearGradient id="paint3_linear_2058_105" x1="83.2354" y1="92.439" x2="90.1571" y2="82.1509" gradientUnits="userSpaceOnUse">
<stop stop-color="#2B009B"/>
<stop offset="1" stop-color="#AD24FF"/>
</linearGradient>
<linearGradient id="paint4_linear_2058_105" x1="83.321" y1="89.1855" x2="86.5716" y2="86.4151" gradientUnits="userSpaceOnUse">
<stop stop-color="#7203D5"/>
<stop offset="1" stop-color="#A223F6"/>
</linearGradient>
<linearGradient id="paint5_linear_2058_105" x1="85.8867" y1="86.3097" x2="91.4795" y2="82.0288" gradientUnits="userSpaceOnUse">
<stop stop-color="#B951EF"/>
<stop offset="1" stop-color="#FFFFF8"/>
</linearGradient>
<linearGradient id="paint6_linear_2058_105" x1="37.7585" y1="48.1334" x2="48.8986" y2="37.1215" gradientUnits="userSpaceOnUse">
<stop stop-color="#7D00E4"/>
<stop offset="1" stop-color="#FFE1FF"/>
</linearGradient>
<linearGradient id="paint7_linear_2058_105" x1="44.3885" y1="26.2194" x2="64.7886" y2="12.0429" gradientUnits="userSpaceOnUse">
<stop stop-color="#8428D0"/>
<stop offset="1" stop-color="#FFD5FF"/>
</linearGradient>
<linearGradient id="paint8_linear_2058_105" x1="25.8172" y1="41.1878" x2="48.9798" y2="29.1128" gradientUnits="userSpaceOnUse">
<stop stop-color="#831EDF"/>
<stop offset="1" stop-color="#BB4EFF"/>
</linearGradient>
<linearGradient id="paint9_linear_2058_105" x1="17.0225" y1="31.7653" x2="41.0583" y2="21.921" gradientUnits="userSpaceOnUse">
<stop stop-color="#A74BE8"/>
<stop offset="1" stop-color="#DD94FE"/>
</linearGradient>
</defs>
</svg>
