<svg width="104" height="103" viewBox="0 0 104 103" fill="none" xmlns="http://www.w3.org/2000/svg">
<path d="M20.8958 74.2871C21.1839 74.2763 21.4249 74.2747 21.6985 74.3881C22.032 74.5265 22.3208 74.8574 22.4452 75.1928C22.5677 75.5228 22.5495 75.8369 22.4014 76.1549C22.2139 76.5574 21.8298 76.765 21.4355 76.916C21.1515 76.9448 20.8821 76.9826 20.6135 76.8631C20.2507 76.7017 19.9871 76.4252 19.859 76.0468C19.7404 75.6967 19.772 75.3295 19.937 75.0004C20.134 74.6079 20.4966 74.4173 20.8958 74.2871Z" fill="#3C096C"/>
<path d="M75.677 81.2441L78.2543 83.7647L75.7634 86.2053L75.6678 86.2312L73.205 83.6608L75.677 81.2441Z" fill="#3C096C"/>
<path d="M52.7438 88.5852C52.3141 88.6423 51.8002 88.6423 51.37 88.588C50.4399 88.4705 49.5472 88.2185 48.7672 87.68C48.0205 87.1647 47.3851 86.4296 46.7444 85.788L44.0606 83.1143L32.7723 71.796L21.3848 60.407L17.8832 56.9203C17.3657 56.3931 16.8178 55.8719 16.341 55.3076C15.6961 54.5443 15.2178 53.5936 15.0403 52.6069C14.9668 52.1984 14.9279 51.8189 14.9332 51.4018C14.9489 50.1582 15.3876 48.9644 16.1313 47.9754C16.4478 47.5544 16.8496 47.1857 17.2216 46.8144L18.8973 45.1428L25.1962 38.8979L37.3252 26.8675L47.8753 16.368C49.0121 15.2532 50.5529 14.7146 52.1298 14.7314C53.3447 14.7443 54.5075 15.1335 55.4842 15.8607C56.535 16.643 57.4584 17.7518 58.3857 18.6796L63.6309 23.8844L76.3856 36.6302L83.1938 43.3631L86.4668 46.6329C87.1099 47.2836 87.8337 47.9436 88.3367 48.7101C88.732 49.3126 88.9711 49.9329 89.0803 50.645L89.0918 50.7166C89.3102 52.185 88.7941 53.5425 87.9123 54.6936C87.2659 55.5373 86.4152 56.2575 85.6611 57.0057L81.7837 60.8741L69.5134 73.2481L64.6083 78.2567L64.0041 78.8569C63.9516 78.909 63.8371 79.0491 63.7741 79.0696L58.0439 84.8484L56.2851 86.6223C55.8816 87.0292 55.4894 87.4546 55.0149 87.7809C54.3605 88.231 53.5378 88.5261 52.7438 88.5852Z" fill="url(#paint0_linear_2091_383)"/>
<path d="M84.7526 51.9408L84.759 51.9845C84.7788 52.1386 84.7626 52.2109 84.703 52.352C84.6711 52.4274 84.6833 52.3989 84.6758 52.5056L84.759 52.458L84.8726 52.5827L84.9748 52.5644L85.0834 52.6734L85.1556 52.6503C85.2722 52.6165 85.2097 52.6299 85.3127 52.6267C85.4032 52.6238 85.4463 52.5893 85.5203 52.5422L85.6267 52.5759C85.6799 52.5367 85.7149 52.5306 85.7312 52.465C85.7691 52.3124 85.7935 52.2472 85.9126 52.1387C85.8186 52.7707 85.5057 53.3112 85.0888 53.7896C84.5546 54.4024 83.9324 54.9648 83.364 55.5474L77.8237 61.0522L63.1395 75.6926L57.155 81.6657L55.3267 83.4937C54.8642 83.9546 54.4083 84.4381 53.8812 84.826C53.3796 85.1951 52.8505 85.3795 52.228 85.4085C52.3294 84.9964 52.4224 84.5113 52.3772 84.0876L52.1932 84.001C52.7267 83.9916 53.145 83.92 53.5764 83.5721C53.9268 83.2897 54.2435 82.9317 54.5634 82.6129L56.302 80.8793L61.9024 75.3335L83.4532 53.8651C84.0406 53.2892 84.48 52.7191 84.7526 51.9408Z" fill="#C77DFF"/>
<path d="M50.3021 84.9534L49.9216 84.6433C48.9704 83.8259 48.0987 82.8989 47.2119 82.0118L43.637 78.4558L36.9935 71.9081L33.142 68.0212L26.7382 61.6701L24.0973 58.9868L20.8028 55.7645C20.206 55.1806 19.5411 54.6016 19.0117 53.9559C18.4652 53.2893 18.123 52.4818 18.0674 51.6185C18.0025 50.6121 18.3851 49.6672 19.0482 48.9239C19.5478 48.3638 20.1359 47.8564 20.6702 47.3271L24.1779 43.8396L36.84 31.3226L45.883 22.3295L48.3634 19.8506C48.7778 19.4356 49.1901 18.9645 49.6454 18.5971C50.2797 18.0852 51.0025 17.8051 51.8196 17.773C52.6044 17.7422 53.3319 17.9167 53.9701 18.386C54.3359 18.655 54.6434 19.0237 54.971 19.3385L57.4586 21.8096L60.9583 25.2826L73.4572 37.779L75.8005 40.0245L80.2396 44.4444L82.202 46.3627C83.3069 47.6406 84.8129 48.6879 85.6767 50.1506C85.9124 50.7322 86.092 51.5163 85.9125 52.1387C85.7934 52.2472 85.7691 52.3124 85.7312 52.465C85.7149 52.5306 85.6799 52.5367 85.6267 52.5759L85.5202 52.5422C85.4463 52.5893 85.4032 52.6238 85.3126 52.6266C85.2096 52.6299 85.2722 52.6165 85.1556 52.6503L85.0834 52.6734L84.9748 52.5644L84.8726 52.5827L84.759 52.458L84.6758 52.5055C84.6833 52.3989 84.6711 52.4274 84.703 52.3519C84.7625 52.2109 84.7787 52.1386 84.759 51.9845L84.7526 51.9408L84.7588 51.8517L84.7905 51.5251C84.7862 50.9514 84.4298 50.4533 84.0737 50.0348C83.5774 49.4515 83.0176 48.9118 82.4813 48.365L79.4217 45.3016L72.2797 38.1965L70.4617 36.4784L63.8851 29.9065L53.8278 19.9605C53.2254 19.3659 52.7037 19.0935 51.8405 19.1044C51.3088 19.1111 50.8924 19.2811 50.469 19.6019C49.9549 19.9912 49.4899 20.5462 49.0284 21.002L46.4039 23.5723L36.131 33.7848C35.2081 34.5462 34.3647 35.5067 33.5109 36.35L28.602 41.1782L23.1285 46.6554C22.1617 47.6272 21.0888 48.5919 20.2085 49.6418C19.9689 49.9274 19.8419 50.3382 19.7787 50.7008L19.7785 50.7128C19.6984 51.4293 19.6573 52.0446 20.1322 52.652C20.4495 53.0578 20.8636 53.408 21.2289 53.7716L23.2118 55.7652L31.4059 63.8746L44.8855 77.4515L48.8754 81.4142L50.8389 83.3425C51.2279 83.697 51.6767 83.9076 52.1932 84.001L52.3772 84.0876C52.4223 84.5113 52.3294 84.9964 52.228 85.4085L51.4623 85.3806C51.0278 85.2474 50.7019 85.1924 50.3021 84.9534Z" fill="#E0AAFF"/>
<path d="M36.131 33.7848L46.4039 23.5723L49.0284 21.002C49.4899 20.5462 49.9549 19.9912 50.469 19.6019C50.8924 19.2811 51.3088 19.1111 51.8405 19.1044C52.7037 19.0935 53.2254 19.3659 53.8278 19.9605L63.8851 29.9065L70.4617 36.4784L72.2797 38.1965L79.4217 45.3016L82.4814 48.365C83.0176 48.9118 83.5774 49.4515 84.0737 50.0348C84.4298 50.4533 84.7862 50.9514 84.7905 51.5251L84.7588 51.8517L84.7526 51.9408C84.48 52.7191 84.0405 53.2892 83.4532 53.8651L61.9024 75.3335L56.3019 80.8793L54.5634 82.6129C54.2435 82.9317 53.9268 83.2897 53.5764 83.5721C53.145 83.9199 52.7267 83.9916 52.1932 84.001C51.6767 83.9076 51.2279 83.697 50.8389 83.3425L48.8754 81.4142L44.8855 77.4515L31.4059 63.8746L23.2118 55.7652L21.2289 53.7716C20.8636 53.408 20.4495 53.0578 20.1322 52.652C19.6573 52.0446 19.6984 51.4293 19.7785 50.7128L19.7787 50.7008C19.8419 50.3382 19.9689 49.9274 20.2085 49.6418C21.0888 48.5919 22.1617 47.6272 23.1285 46.6554L28.602 41.1782L33.5109 36.35C34.3647 35.5067 35.2081 34.5462 36.131 33.7848Z" fill="url(#paint1_linear_2091_383)"/>
<path d="M32.7044 46.8924C33.0543 46.8006 33.3761 46.7949 33.6985 46.9839C33.9618 47.1382 34.1937 47.4235 34.4085 47.6381L35.7688 49.0075C35.7619 49.1766 35.5259 49.3444 35.4046 49.467C34.4257 48.7416 33.7413 47.5438 32.7044 46.8924Z" fill="#5A189A"/>
<path d="M32.0227 56.4713C32.2829 56.3722 32.4989 56.281 32.7191 56.105C32.9685 55.9968 33.2575 55.6219 33.4602 55.4192L35.3641 53.5128L35.8914 54.0348L34.4459 55.4715C34.1123 55.8017 33.6994 56.3005 33.2628 56.4841C32.8438 56.6601 32.4365 56.6435 32.0227 56.4713Z" fill="#5A189A"/>
<path d="M39.0783 46.6599C39.4391 46.5823 39.8269 46.66 40.1369 46.8637C40.4479 47.0681 40.6385 47.3847 40.7004 47.7486C40.7775 48.2018 40.6447 48.634 40.3651 48.9919C39.6348 49.9266 38.6581 50.7288 37.8172 51.5659L39.643 53.3899C39.8942 53.6422 40.2451 53.9238 40.4363 54.2161C40.5858 54.4446 40.6449 54.7871 40.6449 55.0574C40.6449 55.4327 40.5352 55.7336 40.2658 55.9983C39.9548 56.3039 39.5527 56.514 39.1079 56.5037C38.8857 56.4985 38.6438 56.4715 38.4703 56.3241C38.7808 56.2551 39.0148 56.1852 39.2495 55.9613C39.5353 55.6888 39.6938 55.3522 39.6963 54.9547C39.6981 54.6626 39.6257 54.3609 39.4671 54.1133C39.2538 53.7802 38.8864 53.4836 38.6061 53.2044L36.8376 51.4467L38.5559 49.7341C38.8766 49.413 39.2527 49.0904 39.5232 48.7256C39.7469 48.4236 39.831 48.0071 39.7555 47.6401C39.6654 47.2021 39.4502 46.8994 39.0783 46.6599Z" fill="#5A189A"/>
<path d="M31.6967 62.9206C31.8693 62.9733 31.923 63.0098 32.0365 63.1468C32.5324 63.7459 33.1231 64.3083 33.6739 64.8591L36.0084 67.1923C36.4184 67.6022 36.8923 68.0094 37.2585 68.4567C37.3108 68.5205 37.3644 68.5694 37.4246 68.625C37.8103 68.981 38.1607 69.4684 38.5969 69.7563L38.6975 69.6301L38.5974 69.5049L38.66 69.354L38.6223 69.2911C38.5589 69.1801 38.5766 69.0251 38.4968 68.9768L38.4963 68.9014L38.4495 68.8558C38.3796 68.7856 38.4052 68.8142 38.346 68.7253L38.4083 68.6625C38.2863 68.5573 38.1789 68.4536 38.069 68.3356L36.4245 66.69C36.2074 66.4692 36.0296 66.2285 35.8092 66.0083L34.4779 64.7036C34.3598 64.5781 34.1756 64.4372 34.1208 64.2744L34.0786 64.2641C33.9514 64.2164 33.9182 64.1154 33.8568 64.0104C33.805 63.9217 33.6872 63.8281 33.5928 63.7966L33.6179 63.7041L45.349 75.5012L48.5834 78.7409C49.8595 79.9658 51.2681 81.169 52.3315 82.5849C52.1907 82.6687 52.0072 82.6596 51.8491 82.6355C51.4424 82.5735 51.1402 82.3691 50.8374 82.1074C49.7257 81.1459 48.6884 80.0232 47.642 78.9877L40.5672 71.8865L34.9209 66.2429L32.6209 63.9151C32.3095 63.5877 31.9807 63.2727 31.6967 62.9206Z" fill="#7B2CBF"/>
<path d="M31.6593 56.6254L31.6381 56.6121C31.2058 56.605 30.8369 56.5397 30.5062 56.2361C30.1919 55.9473 30.0382 55.5968 30.0425 55.1719C30.0451 54.9159 30.1196 54.6396 30.2653 54.4273C30.4771 54.119 30.8465 53.823 31.1153 53.5551L33.0347 51.6461L31.3324 49.9662C31.0304 49.666 30.6225 49.3407 30.4108 48.97C30.2247 48.6439 30.2124 48.2009 30.3313 47.852C30.4488 47.5069 30.7712 47.1404 31.1087 46.9965C31.528 46.8179 31.9318 46.878 32.341 47.0465C33.3779 47.6979 34.0623 48.8957 35.0412 49.6211C35.2631 49.5644 35.5132 49.1861 35.671 49.0182L37.0165 47.67C37.3101 47.3791 37.7069 46.8842 38.1057 46.7529C38.4119 46.6522 38.7079 46.671 39.0127 46.7643C39.0614 46.7792 39.2141 46.8448 39.2541 46.8399C39.626 47.0793 39.8412 47.382 39.9313 47.82C40.0068 48.187 39.9228 48.6035 39.699 48.9055C39.4285 49.2703 39.0524 49.593 38.7317 49.9141L37.0135 51.6266L38.782 53.3844C39.0622 53.6636 39.4296 53.9602 39.643 54.2933C39.8015 54.5408 39.8739 54.8426 39.8721 55.1347C39.8696 55.5322 39.7111 55.8688 39.4254 56.1413C39.1907 56.3652 38.9566 56.4351 38.6461 56.504C38.332 56.4931 38.0563 56.4697 37.7748 56.3169C37.4445 56.1375 37.0918 55.6958 36.8239 55.4271L35.0001 53.5935L32.3557 56.2592C32.1355 56.4352 31.9196 56.5264 31.6593 56.6254Z" fill="#FDFDFD"/>
<path d="M39.7546 33.3858L42.6373 30.5191L48.1492 24.9911L50.1369 22.9794C50.4836 22.6284 50.8352 22.2124 51.2312 21.9195C51.4838 21.7327 51.7443 21.6618 52.057 21.678C52.3824 21.6948 52.625 21.833 52.8628 22.0495C53.3379 22.4819 53.7688 22.9716 54.2221 23.4273L57.0053 26.2034L63.2101 32.3635L67.4303 36.6218L71.7352 40.8237L76.1155 45.2058L79.6078 48.6956C80.3892 49.4737 81.2353 50.2412 81.9567 51.0729C82.1608 51.3083 82.1975 51.4652 82.1765 51.7732C82.1633 51.967 82.0989 52.1813 82.0309 52.3622L81.9774 52.4046C81.3459 52.1289 80.7173 51.3382 80.2272 50.8486L77.6523 48.2609L72.5169 43.1315L52.1764 22.8663L52.0252 22.6769C51.7568 22.829 51.4862 23.187 51.2687 23.4126L49.6905 25.0233L40.2055 34.5034L37.1189 37.6248L36.3745 38.3563C36.32 38.4097 36.1728 38.5261 36.1479 38.5896C35.7868 38.8466 35.4472 39.2716 35.1314 39.5911L32.9034 41.8403L24.6683 50.0605L23.2505 51.4669C23.0496 51.6667 22.8123 51.9616 22.57 52.1001C22.353 51.8537 22.0449 51.5744 21.8907 51.2896L39.6963 33.4565L39.7546 33.3858Z" fill="#FDFDFD"/>
<path d="M19.7785 50.7128L19.8445 50.7456L19.8541 50.796C19.9116 51.0699 20.0466 51.2598 20.226 51.4697C20.5647 51.8658 20.9803 52.21 21.3514 52.5764L23.0313 54.296L31.6967 62.9206C31.9807 63.2727 32.3095 63.5877 32.6209 63.9151L34.9209 66.2429L40.5672 71.8866L47.642 78.9877C48.6884 80.0233 49.7257 81.1459 50.8374 82.1074C51.1402 82.3691 51.4424 82.5735 51.8491 82.6355C52.0072 82.6596 52.1907 82.6687 52.3315 82.5849L60.0358 74.9264L75.0544 60.0014L79.807 55.2709L80.8487 54.2195C81.1067 53.9605 81.3939 53.703 81.597 53.3982L81.6413 53.3292C81.8206 53.054 81.9795 52.7388 81.9774 52.4046L82.0309 52.3622L83.4532 53.8651L61.9024 75.3336L56.3019 80.8794L54.5634 82.613C54.2435 82.9317 53.9268 83.2897 53.5764 83.5721C53.145 83.92 52.7267 83.9916 52.1932 84.001C51.6767 83.9076 51.2279 83.6971 50.8389 83.3425L48.8754 81.4143L44.8855 77.4515L31.4059 63.8746L23.2118 55.7653L21.2289 53.7716C20.8636 53.408 20.4495 53.0578 20.1322 52.652C19.6573 52.0446 19.6984 51.4293 19.7785 50.7128Z" fill="#5A189A"/>
<path d="M52.1574 38.3378L54.7897 38.348C56.2899 38.3596 57.5031 38.3051 58.6348 39.4388C59.1564 39.9615 59.5146 40.6554 59.5987 41.3911C59.6772 42.0789 59.6424 42.7898 59.6432 43.4821L59.6452 46.816L59.6437 49.8507C59.6429 50.492 59.6809 51.1579 59.5774 51.7921C59.4877 52.3417 59.2441 52.817 58.9058 53.253C58.359 53.958 57.5657 54.5383 56.6606 54.6625L55.229 54.7105L55.164 54.7155L52.1902 54.7172L52.1901 59.7594L59.4954 59.7702L59.5039 64.7782L52.1833 64.7763L44.497 64.7774L44.4695 64.7333L44.4635 56.5978L44.4685 54.4045C44.4703 53.9335 44.4391 53.4133 44.5393 52.9523C44.7222 52.1113 45.1554 51.352 45.756 50.7382C46.2712 50.2117 47.0079 49.7713 47.7256 49.5961C48.3374 49.4467 48.9813 49.4878 49.6069 49.4871L52.192 49.4877L52.1538 43.1898L49.4878 43.1947L49.4959 46.6029L44.3269 46.6012L44.335 43.2731C44.3394 42.6013 44.2583 41.7665 44.427 41.1203L44.4496 41.0391C44.5338 40.7287 44.6404 40.441 44.8001 40.1605C45.2738 39.3292 46.0166 38.7392 46.9401 38.4795L47.0182 38.458C47.6638 38.2777 48.4665 38.3334 49.1371 38.3322L52.1574 38.3378Z" fill="#FDFDFD"/>
<path d="M52.1538 43.1898L54.416 43.1951V49.4835L52.192 49.4877L52.1538 43.1898Z" fill="#7B2CBF"/>
<path d="M52.1901 59.7594L49.39 59.7664L49.3847 54.673L55.229 54.7105L55.164 54.7155L52.1902 54.7172L52.1901 59.7594Z" fill="#9D4EDD"/>
<path d="M52.1764 22.8663L72.5169 43.1315L77.6523 48.2609L80.2272 50.8486C80.7173 51.3382 81.3458 52.1289 81.9774 52.4046C81.9795 52.7388 81.8206 53.054 81.6413 53.3292L81.597 53.3982C81.3939 53.703 81.1068 53.9605 80.8488 54.2194L79.807 55.2709L75.0544 60.0014L60.0358 74.9264L52.3315 82.5849C51.2681 81.169 49.8595 79.9658 48.5834 78.7409L45.3491 75.5012L45.4593 75.4575L45.5871 75.5652C45.6365 75.6287 45.603 75.6385 45.6631 75.6786C45.7678 75.7486 45.7208 75.671 45.776 75.7915L45.8014 75.8544L45.8894 75.8921C45.9512 76.0775 48.2977 78.4092 48.5801 78.6079C48.7201 78.7065 48.8242 78.814 48.9447 78.9351L49.3345 79.3372L49.4099 79.3377L51.648 81.6003L51.7611 81.7135C51.8342 81.8332 51.7617 81.7698 51.8334 81.8377C51.9048 81.9054 51.9761 81.9646 52.0416 82.0391L52.1006 82.1066L52.099 79.2191C52.0991 78.8878 52.0371 78.389 52.1257 78.0803L52.1509 78.0044C52.0266 77.8179 52.1006 74.5416 52.1006 74.0312C52.265 73.7845 52.1728 65.798 52.1833 64.7763L59.5039 64.7782L59.4954 59.7702L52.1901 59.7594L52.1902 54.7172L55.164 54.7155L55.229 54.7105L56.6607 54.6625C57.5657 54.5383 58.359 53.958 58.9058 53.253C59.2441 52.817 59.4877 52.3417 59.5774 51.7921C59.6809 51.1579 59.6429 50.492 59.6437 49.8507L59.6452 46.816L59.6432 43.4821C59.6424 42.7898 59.6772 42.0789 59.5987 41.3911C59.5146 40.6554 59.1564 39.9615 58.6349 39.4388C57.5032 38.3051 56.2899 38.3596 54.7898 38.348L52.1574 38.3378L52.1442 35.6412C52.1931 35.536 52.1615 35.2223 52.1614 35.0923L52.1593 33.6078L52.1485 26.4863C52.1481 25.2993 52.0699 24.0463 52.1764 22.8663Z" fill="url(#paint2_linear_2091_383)"/>
<defs>
<linearGradient id="paint0_linear_2091_383" x1="71.452" y1="72.4866" x2="32.4975" y2="30.6454" gradientUnits="userSpaceOnUse">
<stop stop-color="#6B0C90"/>
<stop offset="1" stop-color="#C84FAB"/>
</linearGradient>
<linearGradient id="paint1_linear_2091_383" x1="68.0568" y1="31.0731" x2="37.2143" y2="70.3895" gradientUnits="userSpaceOnUse">
<stop stop-color="#7A20E0"/>
<stop offset="1" stop-color="#B27AE5"/>
</linearGradient>
<linearGradient id="paint2_linear_2091_383" x1="62.4382" y1="22.0948" x2="68.4248" y2="80.7339" gradientUnits="userSpaceOnUse">
<stop stop-color="#610DBB"/>
<stop offset="1" stop-color="#AB6CE4"/>
</linearGradient>
</defs>
</svg>
