<svg width="36" height="34" viewBox="0 0 36 34" fill="none" xmlns="http://www.w3.org/2000/svg">
<path d="M19.076 0.95944C18.3954 0.634939 17.6047 0.634939 16.9241 0.95944C16.3357 1.23996 16.0114 1.72703 15.8478 1.99423C15.6786 2.27046 15.505 2.62234 15.3358 2.96532L11.7429 10.2441L3.70619 11.4188C3.32787 11.474 2.93969 11.5307 2.62483 11.6064C2.32023 11.6797 1.75705 11.8381 1.30886 12.3111C0.790377 12.8584 0.54654 13.6104 0.645241 14.3578C0.730559 15.0039 1.09363 15.4626 1.2973 15.7007C1.50783 15.9467 1.78891 16.2204 2.06285 16.4871L7.87584 22.149L6.50424 30.1461C6.43949 30.5231 6.37306 30.91 6.34749 31.2329C6.32275 31.5453 6.29885 32.1301 6.61001 32.703C6.96994 33.3656 7.60974 33.8304 8.35119 33.9679C8.9922 34.0867 9.541 33.8832 9.83039 33.7631C10.1296 33.6389 10.477 33.4562 10.8156 33.278L18 29.4998L25.1845 33.278C25.5231 33.4562 25.8705 33.6389 26.1697 33.7631C26.4591 33.8832 27.0079 34.0867 27.6489 33.9679C28.3904 33.8304 29.0302 33.3656 29.3901 32.703C29.7012 32.1301 29.6773 31.5453 29.6526 31.2329C29.627 30.91 29.5606 30.5232 29.4959 30.1462L28.1242 22.149L33.9373 16.4871C34.2112 16.2204 34.4923 15.9467 34.7028 15.7007C34.9065 15.4626 35.2695 15.0039 35.3549 14.3578C35.4536 13.6104 35.2097 12.8584 34.6912 12.3111C34.243 11.8381 33.6799 11.6797 33.3753 11.6064C33.0604 11.5307 32.6722 11.474 32.2939 11.4188L24.2571 10.2441L20.6643 2.96545C20.4951 2.62244 20.3215 2.27048 20.1523 1.99423C19.9887 1.72703 19.6643 1.23996 19.076 0.95944Z" fill="url(#paint0_linear_2108_57)"/>
<defs>
<linearGradient id="paint0_linear_2108_57" x1="18" y1="0.716064" x2="18" y2="34.0038" gradientUnits="userSpaceOnUse">
<stop stop-color="#FF8718"/>
<stop offset="1" stop-color="#FFE818"/>
</linearGradient>
</defs>
</svg>
